<svg xmlns="http://www.w3.org/2000/svg" xmlns:xlink="http://www.w3.org/1999/xlink" width="2220.785" height="1216.354" viewBox="0 0 2220.785 1216.354">
  <defs>
    <clipPath id="clip-path">
      <rect id="Rectangle_49" data-name="Rectangle 49" width="2220.785" height="1216.354" fill="none"/>
    </clipPath>
    <clipPath id="clip-path-4">
      <path id="Path_12" data-name="Path 12" d="M201.52,264.357c4.4,0,4.947,1.591,8.723,0s14.931-8.954,18.707-9.968c3.768-1,6.2.338.635,3.438-5.582,3.092-16.737,9.8-14.75,9.292s7.643-2.927,15.649-6.695,7.272-2.094,9.341-6.109,3.15-6.118,3.15-6.118,12.672,12.977,13.843,13.488c1.171.495,1.632-.091,2.259-1.682s1.971-3.859,3.776-3.1.264,3.85,1.336,4.271,2.877-.074,6.208-1.171,1.616-3.5,1.616-3.5-.355-.1,3.512-.429,16,4.1,19.6,5.524,14.486,2.6,17.545,3.595c3.042,1.014,4.213-1.748,8.451.511,4.221,2.259,7.379,5.268,4.221,6.86-3.141,1.6-11.056,2.77-7.008,3.776a62.157,62.157,0,0,0,16.011,2.094c5.837-.173,16.358-2.341,19.59-2.341s5.219,2,8.278,7.115,5.475,7.115,6.645,7.536-1.171-2.432-.544-4.947-.627-7.453-1.344-9.119c-.709-1.682,0-2.515-1.435-4.955-1.435-2.416-3.776-2,.544-4.089s7.28-5.186,12.5-4.526,6.645,7.288,11.147,7.783,5.31,2.259,13.035,2.853,4.5.082,13.134.676c8.624.577,5.483-.94,7.28-5.367,1.806-4.444,3.776-5.277,5.846-5.1s9.341,1.171,9.341,2.094-3.051,5.681-1.525,8.03,7.75,6.2,7.75,6.2-1.352-5.359-1.352-5.944-.454-4.766.453-5.524,6.019.412,9.259-5.87c3.224-6.274-2.168-5.945-2.168-5.945s-1.979.091-.989-2.506,6.744-4.18,6.744-4.18.363,1.171-.363-.932-4.485-1.674-8.542-1.921-6.818-.833-7.552-4.271c-.717-3.438-.989-10.636-.989-15.574s3.966-3.191,4.675-5.944-.181-16.242-1.163-19.013c-1-2.754,1.435-8.715,1.987-12.639.519-3.941,4.576-2.185,4.576-2.185-.717-1.344,1.163-5.1,6.563-6.695s15.657.082,15.657.082-.915.082-3.422,3.347c-2.523,3.265-.9,9.053-4.683,13.15-3.768,4.106-13.4,2.77-13.4,2.77s2.968,6.777,1.715,8.946a26.75,26.75,0,0,0-2.069,6.629s8.451,2.333,8.9,7.7,4.667,6.274,5.664,11.213c.973,4.947-4.139,9.045-3.067,9.795,1.088.767,1.443,1.1,4.51,1.261,3.042.165,7.189.75,7.189.75a5.165,5.165,0,0,0-.181,5.194c1.534,2.68.363,4.353.536,7.206s1.888,5.268,2.6,4.774c.734-.5,4.056-7.8,4.782-11.056.709-3.273,1.253-5.029,2.688-5.029s6.3,4.444,6.835,6.035.9,3.768-1.8,8.121-2.424,6.365-.082,8.039c2.325,1.665,2.424,1.179,6.645,3.191s3.43,1.83,6.027,1.08c2.614-.75-1.08-7.371-.816-7.536.28-.173,6.217-.841,4.873-4.188s-2.713-5.021.082-6.695,4.766-3.018,4.766-3.018c-1.171-2.094-1.525-2.259-3.5-7.874s1.7-4.1,9.449-3.521c7.725.594,8.08,3.265,12.219,5.367s1.525,2.844,2.878,6.192-3.422,3.85-3.422,3.85-3.141.585-2.424,3.182a46.756,46.756,0,0,0,4.411,9.712c2.243,4.023-.626,6.785-4.147,10.05-3.5,3.265-7.643,4.188-11.765,4.271-4.147.082-5.936,1.756-6.2.585-.289-1.171-2.259-2.259-4.5-1.756-2.259.5-7.379,2.515-5.582,3.182s6.563.5,4.584,4.188-3.685,3.685-7.643,3.265-7.635-.421-10.166-.594c-2.506-.157-14.931-.915-14.931-.915s8.385,5.1,15.03,7.2a32.487,32.487,0,0,0,13.67.841s-2.7,5.021-5.944,10.38-6.291,3.018-8.979,3.356c-2.713.33-4.328,2.515-9.358,3.174-5.038.676-15.558-1.418-13.942-.66s2.341,2.086,5.219,2.506a12.246,12.246,0,0,1,7.19,3.018c2.515,2.094-1.616,2.6-4.939,3.174-3.331.594-4.23,1.179-5.755,3.265-1.534,2.1-7.206,10.215-8.995,12.73A27.629,27.629,0,0,0,447.99,352.7c-.725,4.947-4.939,10.883-3.051,12.145s8.979,1.418,11.955,3.265,6.3,10.883,8.542,14.313c2.259,3.438,4.048,6.035,6.563,3.356s7.47-2.012,12.136-.33c4.683,1.674,14.214,8.286,17.182,11.2,2.968,2.935,8.179,2.44,14.016,3.273s6.513,3.042,6.513,3.042,6.085.313,3.57,2.91-3.24.074-.726,4.436,2.432,10.207,1.715,13.142,8.055,1.459,11.749,3.628,3.892,11.032,5.788,9.943,5.029-3.026,5.392-5.359-.091-5.442-.453-9.465-1.352-11.394-3.331-14.321,3.57-4.106,2.671-5.359-.693-3.768,3.092-4.774,4.048-.083,6.109-1.682c2.069-1.583,2.424-9.036,2.779-11.716.371-2.68-.618-8.459-1.517-10.628s-4.592-9.135-5.928-10.636c-1.369-1.509-3.059-1.929.635-6.621,3.677-4.683,1.517-3.685.981-5.1-.544-1.435-1.344-4.947-2.069-8.121-.734-3.191,1.525-6.7.173-11.229s-2.778-3.512-2.506-4.518,8.805-.75,15.1-.082,8.806-.668,10.6-.668,5.046,1.756,8.55,4.023c3.5,2.251,4.848,1.674,6.654,4.436s2.778,4.271,6.456,4.1A19.822,19.822,0,0,1,605,340.894s-2.622,1.509-2.16,6.456c.445,4.93-.544,8.525-.462,10.545.091,2,1.1,2.094,2.787,2.35,1.707.247,6.307,4.345,11.056,6.019,4.774,1.682,6.027,1.171,7.552-2.68,1.542-3.85,1.9-3.521,3.784-3.76,1.888-.256,2.515.421,3.323-.421s-1.435-2.515-.9-5.186c.536-2.688,3.149-6.2,5.31-8.212s3.685,2.012,5.573,5.7,8.451,15.657,10.347,19.581c1.88,3.949,4.312,4.2,2.061,7.882s-3.331,5.268.181,6.942,6.654,4.609,6.4,7.371c-.289,2.77-1.006,2.844.173,3.6s5.392-1.509,8.451-.165,6.736,2.605,8.9,4.766c2.152,2.185,1.979,2.935-1.088,4.015a54.6,54.6,0,0,0-7.643,3.1c-1.534.932-3.958,2.688-3.867,4.114s-.635,3.76,1.806,1.921a32.391,32.391,0,0,1,9.259-4.518c2.877-.833.717-.091,3.323-.421,2.622-.338,5.128,1.253,8.731,2.259,3.578,1.014,2.6,3.265,1.7,5.359s-1.7,4.1-.264,6.456c1.443,2.333-.627,4.436-3.784,7.28s-5.474,3.265-10.6,3.933-7.56,3.768-11.155,7.107c-3.586,3.356-5.392,2.515-10.611,2.77s-3.141-2.589-4.757-2.012c-1.633.594-3.685,2.35-7.016,2.7-3.331.33-14.577.495-18.889,1.748s-2.96,4.188-4.04,6.612-2.8,1.426-6.027,2.515-7.107,5.862-10.883,12.4a40.623,40.623,0,0,1-8.9,10.545c1.072-.256,6.381-3.521,8.987-6.7s13.489-10.718,16.819-13.06c3.314-2.341,10.512-5.78,12.219-5.277s5.944,3.768,5.944,5.45-1.261,3.009-4.312,5.854-7.107,0-6.843,1.171a7.915,7.915,0,0,0,4.765,4.436c2.342.585,2.243,3.438,2.243,4.864s-1.344,3.265,4.048,7.783,9.176,4.856,13.134,4.6c3.957-.239,1.888,1.344,3.5,1.179s1.979-3.265,2.515-5.78,1.451-4.848,2.878-5.945c1.451-1.088,2.515-3.1,2.976.759.445,3.842-1.624,9.127-3.7,10.3-2.053,1.171-1.608,2.68-1.608,3.85s-2.333,1.253-7.915,4.353c-5.565,3.1-7.371,3.85-8.36,3.43s-3.059.511-5.747,2.935c-2.7,2.424-5.574,5.705-7.552,5.606-2-.082-3.694-.915-1-3.685s3.6-6.612,6.3-7.956,3.949-1.171,6.2-1.171,1.171-1.344,2.968-2.671c1.8-1.344-1.352-.932-4.411-1.426s-.709-3.191-.709-3.191l-3.158,1.682s-4.757,2.515-6.027,2.688c-1.245.157-.981.989-1.344,1.5s-4.856.833-4.856.833-2.333,4.774-5.846,5.441c-3.5.684-1.072.421-3.595,1.5-2.515,1.1-2.061-1.245-2.605-.577s-.989,1.261-3.768,3.347c-2.8,2.1-4.419,2.77-6.39,10.388-1.987,7.627.354,10.38.264,11.559s-3.5-.759-4.485.157c-1.006.924-3.248,3.776-6.217,4.609s-8.805,2.35-10.158,3.776-1.443,3.43-2.069,6.357-4.139,9.8-4.139,9.8A4.72,4.72,0,0,0,570,547.558c-2.424-2.012-2.053-3.85-2.053-3.85a12.475,12.475,0,0,0,.355,5.6c.915,2.853,2.688,5.705,1.888,8.8-.816,3.1-2.342,6.959-4.221,8.039-1.9,1.088.445-2.094.445-4.6s-1.253-2.68-2.069-3.933-.816-4.444.627-8.715-1.344-1.674-2.968,1.179-2.779,8.113-.272,11.551c2.523,3.438-1.608,3.092.1,8.039s-2.061,7.371-1.36,8.129c.726.75,2.7-.338,3.6,2.086s-1.8,1.344-2.7,2.012-.453,1.591.091,2.935c.536,1.327,1.616.486,1.171.915a9.7,9.7,0,0,1-4.048,2.844c-2.333.759-2.523-.421-3.966,1.261-1.426,1.665-2.506,3.174-4.04,5.1s-2.6,1.27-4.221,2.605-2.243,2.424-4.238,4.106c-1.971,1.674-6.464,4.263-8.9,7.528s-1.8,4.106-2.968,9.391c-1.162,5.26,2.968,14.478,5.582,23.193s3.685,6.283,3.323,9.036-1.525,6.118-3.43,8.039c-1.872,1.929-2.943-1.344-5.557-3.273s-.544-3.257-3.059-7.272-2.341-5.442-2.605-8.377c-.28-2.927-.726-7.115-2.069-10.3s-4.238-7.206-8.542-5.615c-4.32,1.6-3.232.841-5.574.165s-8.542-3.174-11.7-1.509c-3.149,1.682-13.109-.5-15.2,0-2.069.511-3.6.684-3.6,2.111s-.882,1.657,2.8,2.671c3.685,1,3.141,2.094,2.886,3.677-.28,1.591-2.985-.833-4.419-1.418-1.451-.585-2.787,1.171-5.3,1.171s-2.968-2.432-5.227-2.762c-2.243-.338-3.141,0-5.3-.841s-5.029-2.259-7.552-2.094-12.227,6.621-16.819,10.05c-4.576,3.438-8.088,6.785-9.16,9.547s-1.179,3.018,2.515,7.123,1.979,3.438,1.253,5.78-2.878,5.186-5.475,11.213c-2.622,6.027-1.088,8.962,2.053,14.742,3.158,5.78,5.945,9.96,8.459,12.384s4.312,5.029,6.48,5.944a8.682,8.682,0,0,1,3.595,2.267c.989,1.006.717,1.418,4.139.5,3.405-.915,5.928-2.259,8.36-2.259s4.683.083,6.027,1.344c1.344,1.245,1.525.5,1.525-.173a16.612,16.612,0,0,1,1.435-3.85c.355-.676,3.6-5.277,4.139-7.791s.536-7.544,3.694-7.874c3.133-.33,9.877-1.921,15.995-1.5s3.422,3.43,1.806,6.612-2.259,3.512-2.259,5.945.726,2.432-1.245,3.859-.726-.841-1.534.585a12.83,12.83,0,0,1-3.323,3.1c.355-.338,1.253,2.416,1.253,3.76s-.264,2.012-.264,5.285c0,3.257-6.39,6.6-6.39,6.6a12.537,12.537,0,0,0,5.755,1.344c3.422,0,7.552,0,11.147,1.682,3.595,1.665,10.43-1.344,15.467,1.162s3.248,4.023,3.595,6.365c.363,2.341.9,10.388.552,12.227-.371,1.839-2.713,7.025-3.966,10.718-1.261,3.677,3.595,6.365,8.1,9.383a37.345,37.345,0,0,0,10.784,5.013c2.317.676,6.645-3.512,14.569-3.009a12.454,12.454,0,0,1,10.6,7.206,33.986,33.986,0,0,1,4.493-9.886c3.611-5.689,3.776-7.371,8.632-9.209s6.48-2.177,14.4-4.691,6.464-.66,10.595-.33a114.9,114.9,0,0,1,23.209,4.015c9.531,2.845,24.108,3.686,29.673,6.027s8.1,8.888,13.851,14.239,12.944,10.215,16,12.73,20.142,4.856,23.926,6.365c3.768,1.5,8.987,7.7,9.341,11.378s4.139,5.532,9.35,7.7c5.211,2.185,6.835,4.7,10.257,11.394s2.333,8.542,7.008,10.215,37.052,10.38,45.132,13.571c8.1,3.182,18.353,11.724,21.049,12.73s7.56-.849,9.721.33-1.27,7.536,1.435,12.054,2.877,4.864,1.261,8.212-8.1,11.386-10.6,15.409c-2.531,4.024-7.923,6.53-10.974,8.212-3.059,1.657-5.763,0-3.059,3.347s.181,6.184-2.16,9.209c-2.342,3.009.181,2.671-.544,12.392s0,20.257-1.088,24.446c-1.072,4.2-7.355-3.677-14.56,5.367-7.189,9.044-9.168,15.9-13.48,16.91-4.329,1-14.387,6.027-17.809,9.21s-4.131,4.353-6.3,9.044c-2.152,4.675-4.312,14.23-6.645,20.092s-6.118,9.218-14.75,17.083-12.409,15.912-17.99,22.113c-5.565,6.192-4.139,4.848-5.3,6.027-2.976,2.985-15.253-4.823-12.079-.5,2.342,3.183-1.319,0,.66,3.01s3.422,4.188-.9,9.547c-4.3,5.359-9.3,4.3-12.714,5.136s-8.517-3.521-8.871-1.336-2.333,7.593-5.029,8.929-9.885,3.347-9.7,4.188c3.4,15.871,10.38,17.52,2.985,16.795-20.274-1.979-5.8-6.794-19.9,22.723-2.152,4.526-4.312,2.177-3.957,7.544s0,9.375,2.886,12.73.9,3.174-3.957,7.692-5.219,3.859-9.712,10.726-8.814,6.53-7.2,11.724,1.979,12.895,4.675,20.6,8.269,6.357,17.091,11.724c8.805,5.351,9.885,2.506,14.206,3.85s-3.059,1.674-10.8,3.009c-7.726,1.344-12.763,2.853-18.163,1.69-5.392-1.179-18.147-8.55-22.475-11.732-4.312-3.182-11.32-8.871-13.843-14.4s-4.32-11.048-7.552-18.584-.907-12.235.536-28.807,2.523-29.475,4.856-38.347c2.333-8.888,9.539-48.405,11.5-58.629,1.987-10.215,11.155-51.744,11.881-58.274a155.5,155.5,0,0,1,2.7-18.089c1.435-6.53.544-19.763.544-20.431s-.544-1.171-2.531-7.371c-1.971-6.2-5.211-8.706-9.7-11.386s-9.176-6.027-12.763-8.542a54.631,54.631,0,0,1-11.51-10.545c-3.611-4.526-7.025-13.736-8.822-17.594a235.008,235.008,0,0,0-14.56-25.946c-6.109-9.044-6.472-9.218-9.531-18.773-3.059-9.539,2.7-9.7,3.776-15.063,1.064-5.359,4.675-10.726,8.632-18.254s9.168-9.712,12.235-16.407c3.051-6.711.717-6.711-.371-13.241s.371-5.516-1.624-9.044c-1.979-3.5-3.042-7.857-4.848-9.036s-4.493-2.012-6.109-.165-4.5,7.2-6.291,7.536-2.523-1.682-3.6-2.853-6.291-1.171-7.379-2.341-3.768-1.344-5.565-2.177-8.822-4.526-10.792-6.192a14.347,14.347,0,0,1-4.493-10.05c0-4.353-3.776-6.035-12.227-12.062s-12.054-6.868-22.31-9.383-14.379-9.7-17.8-11.716-3.051-4.188-10.611-3.356S424.8,711.34,419.034,709c-5.747-2.35-16-4.015-20.332-6.86-4.3-2.861-11.848-3.859-15.088-10.727s-2.7-4.188-1.443-10.215-7.379-11.048-12.59-16.745-9.176-6.53-11.873-13.563-6.645-6.7-11.864-11.724-5.4-11.394-7.56-17.092-16.531-13.892-16.531-13.892,3.76,9.547,5.384,13.4,5.392,13.06,9.721,19.936c4.3,6.86,8.1,8.534,12.046,15.4s.181,11.048-1.27,8.377c-1.435-2.688-7.189-3.859-7.189-7.033,0-3.191-1.435-5.194-2.7-7.7s-6.835-5.376-12.235-9.729-9.16-6.357-5.755-6.357c3.422,0,8.278,3.174,7.379,1.171s-7.016-8.2-9.894-12.565-3.784-9.209-6.654-16.58-13.48-14.4-18.707-14.9c-5.211-.511-6.645-3.018-8.443-8.377s-2.16-11.048-4.5-15.245c-2.342-4.18-12.408-18.246-12.582-23.6-.19-5.359-3.059-20.933.536-29.648s2.7-28.131,2.16-31.99c-.536-3.842-7.025-11.2-7.025-14.066,0-2.844,3.793-1.171,6.67-.338,2.869.849,8.979,3.356,8.979,3.356s-4.667-8.706-7.544-11.716c-2.886-3.026-11.337-6.876-15.1-7.709-3.793-.833-8.641-2.177-10.611-5.359s-4.139-7.363-5.582-10.05-7.56-5.854-8.987-8.707c-1.443-2.853-1.08-8.377-3.059-11.221s-4.856-4.518-8.1-3.347-4.3-1.682-6.818-5.87c-2.523-4.172-8.1-6.192-9.721-6.687-1.616-.511-7.181-7.874-7.552-9.721-.355-1.839-9.176-11.559-12.046-13.563-2.886-2.02-30.753-11.056-31.462-11.056-.734,0-8.83,1.171-10.974.5-2.16-.668-9.539-7.033-13.3-8.368-3.793-1.344-6.5,1.5-8.278,5.689-1.814,4.188-10.619,11.386-15.475,14.569s-8.814,3.521-8.459,1.847.181-4.353,1.814-8.377c1.608-4.015,2.506-5.186,7.536-7.7,5.054-2.515,4.856-2.68,2.886-2.515s-3.422-.338.544-2.671c3.949-2.358,5.573-2.688,5.392-4.7s-8.641,2.688-14.041,7.033a49.042,49.042,0,0,0-13.291,15.072c-4.683,7.709.536,4.856-3.43,9.885-3.949,5.029-17.438,15.245-21.4,19.095s-20.315,12.384-26.977,14.4c-6.662,2-9.35,2.844-12.59,5.524s-11.32,3.512-8.632,1.674c2.7-1.847,7.734-6.035,11.155-8.047,3.405-2,12.59-5.689,15.286-6.687a49.688,49.688,0,0,0,14.033-9.885c3.768-4.188,6.291-9.045,8.805-13.06s3.059-5.862-2.152-4.188a22.13,22.13,0,0,1-13.315,0c-2.7-1.006-9.712,3.174-12.227,1.344-2.515-1.847.181-5.7-1.451-7.544-1.6-1.839-7.181-.66-10.784-1.344-3.595-.66-8.624-3.512-8.624-8.542s-3.595-9.374-1.624-13.225,4.864-4.864,8.1-7.025c3.232-2.185,12.219-5.029,14.024-5.029s4.32-1.847,5.936-3.521-3.784-7.709-3.784-7.709.907-.66,3.067-2,.544-4.188-3.248-3.685c-3.776.5-11.864,4.362-16.9,5.689-5.029,1.344-11.856.5-11.683-1.665s1.253-3.52-.536-5.194-3.24-3.521-1.443-4.353S18,314.939,18,314.939s3.949,4.345,8.27,4.856,13.48-7.536,13.48-7.536c-5.747-3.521-4.493-4.526-4.493-4.526s-9.35-.165-11.51-1.509-2.877-4.015-3.413-6.357-9.712-4.188-7.189-8.047c2.515-3.842,7.189-5.186,10.248-9.036s5.755-11.065,14.569-15.08,19.425-7.7,24.1-11.048,6.835-.157,8.632.33c1.8.5,12.953-.486,17.256-.486,4.32,0,5.038,4.84,6.48,6.01,1.426,1.179,39.385,2.35,39.385,2.35s32.179.5,38.66,2.35,18.163,6.695,18.163,6.695c7.107-.915,6.48-9.547,10.883-9.547M633.943,70.093s-3.24,13.4-16.176,17.083-36.7,14.066-37.778,14.733,1.443,8.039,4.675,11.724,6.3,6.192,9.176,9.877,7.907,3.356,11.873,7.206c3.949,3.85,6.818,2.506,17.619,2.68s7.915,1.006,19.969,1.674,24.644,1.682,28.774,5.359,10.067,18.089,13.843,26.8,10.438,23.11,10.438,24.454c0,1.327-4.139,11.9-4.139,13.563,0,1.682,2.152,4.518,4.139,6.868,1.971,2.342.89,4.18.528,6.357s2.16,7.709,2.523,8.385c.363.66,5.747-5.367,9.176-6.365,3.413-1.006,11.872,6.027,11.872,10.883,0,11.007,2.993,7.255-14.931,20.266-2.358,1.715-4.667,14.9-2.878,21.255,1.8,6.373,6.118,13.909,9.531,22.953s13.488,21.766,16.72,27.637,4.139,13.892,11.328,15.748c7.2,1.83,14.033,4.345,19.243,5.516s8.632,2.844,11.147-2.012c2.531-4.848,7.56-23.275,11.708-36.673,4.122-13.4-.379-17.413,9.341-20.431s25.171-9.045,29.31-10.883c4.139-1.855,3.422-15.071,12.59-19.433,9.185-4.353,10.43-4.007,19.416-6.868,9-2.844,21.585-8.533,30.588-14.9,8.987-6.365,11.5-3.018,14.742-8.88s-3.24-14.4-3.949-23.11c-.726-8.707,2.877-9.209,4.658-17.083,1.814-7.866,2.7-13.06,9.721-18.427s10.784-8.36,9.531-13.39-4.856-12.565-4.856-18.089,1.261-2.342-1.616-10.042-2.878-8.715-.19-15.912c2.713-7.206,9.894-5.359,9.358-8.55-.544-3.174-11.51-8.03-11.683-16.91s1.979-11.551,3.768-13.736,20.15-16.745,21.4-18.089-.355-5.021,8.632-9.374,12.054-7.2,15.467-8.542,8.814-1.171-1.624-4.188-12.755-4.345-19.6-3.512c-6.827.841-9.16,4.691-21.4,5.87-12.235,1.163-26.087,6.86-26.087,6.86s4.139-3.685.544-7.206,9.35-15.071,11.518-16.415c2.144-1.327-16.91-6.027-26.8-7.857C865.226,5.108,845.8-.746,834.654.078,823.5.919,807.141.763,801.559,2.593c-5.574,1.847-4.848,9.045-11.147,9.391-6.3.33-17.982-3.685-26.977-2.35s-23.39,7.544-25,7.874c-1.624.33,5.573,4.683,10.248,5.689S759.47,33.923,759.47,33.923s-12.573-4.2-25.353-7.709-27.7,0-32.913,1.509-12.054,4.345-22.475,4.856c-10.438.5-22.3,9.045-28.238,13.06s-24.454,14.733-29.129,17.248-2.877,3.685,2.152,5.029,10.43,2.177,10.43,2.177M367.43,208.54c1.426,6.134,1.426,14.956-1.929,11.163s-6.118-11.51-11.5-8.385-11.271,2.243-10.314,1.575-.115-4.023-2.886-5.029c-2.746-1.006-4.427.561-7.3,2.243-2.886,1.674-12,3.9-8.278.989s2.515-4.452,1.2-7.808-10.792,2.342-15.83,5.92-8.022,9.036-11.032,12.722c-2.993,3.685-.833,6.043,3.718,7.371,4.559,1.344,11.873,2.234,5.755,4.477-6.1,2.226-10.792,3.784-7.668,5.689s8.517,2.226,13.909,1.558,9.951-2.111,18.584.231,13.777,2.226,13.777,2.226a27.237,27.237,0,0,1-8.987,3.018c-5.755,1-16.308,0-21.709,1-5.384,1.014-13.9,2.457-11.741,4.469s3.834,5.128,11.271,7.478,8.756.124,13.183,1.228c4.444,1.121,2.045,6.142,3.24,6.926s9.6-.668,17.99-2.234,5.268-2.9,11.872-4.584c6.588-1.665,6.827-6.687,10.669-7.808,3.826-1.113,1.08,2.572,5.623,3.685,4.568,1.121,2.045,1.451,6.959,2.234s3.957,2.68,8.756,2.342,10.43-3.57,9.7-4.139c-.709-.552-1.435-2-.948-4.238s-4.815.445-6.72,1.566c-1.921,1.121-1.8-3.018,2.267-5.029,4.089-2,7.692,0,10.083,0s.247-6.926-4.081-8.03c-4.312-1.121-6.225-3.8-12.714-7.371-6.464-3.57-3.117-5.137-5.029-9.82s-5.994-18.543-9.6-21c-3.586-2.457-7.429-1.781-11.023-4.23,0,0-.717,3.455.725,9.6m-99.515-9.49c1.566,4.46,1.789,1.665-1.327,6.579s-1.319,6.7-3.471,10.388-7.907,8.6-6.118,11.048,7.552,3.908,9.96,5.8c2.391,1.9,4.79,5.8,9.094,4.362a47.887,47.887,0,0,0,8.764-4.023c3-1.558,5.516-3.347,5.392-7.264s-.239-5.8.973-5.458c1.2.33,3.108,2.119,4.065-.453a23.658,23.658,0,0,1,4.675-7.923c2.036-2,7.907-4.023,10.669-6.365s7.437-4.906,8.748-6.917c1.336-2.02-2.4-3.57-4.667-4.477-2.276-.89-4.914-4.452-10.191-4.452s-8.154,4.015-7.915,2.226-3.595-2.68-5.747-3.463c-2.168-.775-4.2-2.012-11.04-1.228a77.329,77.329,0,0,0-15.113,2.795c-4.667,1.336,1.69,4.345,3.248,8.822m156.1,53.476c-.709,1-3.834,2.012-5.747,4.238s4.073,1.014,5.986,1.674c1.921.676,3.356,2.564,4.914,3.133,1.566.552,9.951.89,13.431-.792,3.471-1.665,3.826-2.226,3.471-3-.363-.792-7.181-7.478-12.227-10.166s-5.153-2.787-6.233-2.119-2.877,6.019-3.595,7.033m-22.673-52.247c-3.248,1.616-5.606,3.562-.107,6.365,5.508,2.778,7.313,5.136,11.031,7.478s5.268,9.045,13.068,6.027c7.783-3.009,10.908-6.588,12-9.712,1.055-3.133-1.1-3.793-3.009-6.7-1.929-2.894-2.391-4.131-6.357-3.685s-5.277.445-5.277.445a22.177,22.177,0,0,1,6.95-5.466c4.32-2.127.717-3.578,2.754-5.582,2.053-2.012-5.145-3.018-8.261-2.243-3.125.792-3.24-.214-8.393-.437s-13.307,4.469-12.953,6.134,4.2,1.014,7.8,3.018c3.595,2.02,4.667,1.789,1.072,7.478s-5.508-1.336-6.711-2.234c-1.2-.882-.239-2.564-3.611-.882m-23-10.273c-5.384.5-7.206,4.238-5.153,4.8,2.028.561,3.347-.561,6.588,2.9s6.118,5.359,7.429-.33-.594-8.162-8.863-7.371m-86.57-43.219c-6.01,4.807-7.189,8.608-11.864,11.625-4.675,3-3.6,5.582-2.036,7.239,1.558,1.69,6.233-.1,8.385-1.212s3.958-3.908,5.277-2.234,6.835-5.689,9-8.154,5.516-5.021,6.118-4.906-2.053,2.9-1.08,5.244c.956,2.35,5.268,2.457,9.111-1.558s.363-7.709,3.356-10.834,5.516-2.688-.355-5.475-9.6.338-10.8,1.789-3.347-.9-15.1,8.476m36.566,7.6c-3.4.157-4.914.668-10.545,3.125s-8.039,8.822-9.35,12.285c-1.327,3.463.594,3.463,5.755,5.475,5.145,2,12.351-.561,14.016-5.367,1.69-4.807,3.735,1.121,2.77,3.578s3.595.223,5.755-.907c2.16-1.1,8.624-1.55,9.11-1.55s-5.277,4.353-10.916,6.25A80.2,80.2,0,0,1,323.18,180.4c-1.558.231,1.451,2.564,8.03,3.916,6.6,1.336,10.553-4.032,20.035-7.6,9.465-3.57,8.987-4.246,12.1-3.347s6.472-1.566,10.306-2.465c3.834-.882,5.392.569,7.091-5.128,1.665-5.7,4.658-11.163-.734-11.5s-5.755-.338-6.472,5.8-1.2,2.35-1.2,2.35-3.595-5.359-5.755-8.154-3.718-7.14-6.109-9.49-3.479,1.006-7.2,5.137-.717,5.7,3,7.478,6.357,6.365,4.559,7.593-3.842-.223-10.677.561-6.588-2.119-8.509-3.009c-1.921-.907,3.232-2.795-4.089-5.8-7.3-3.026-6.818-2.465-9.226-2.35M306.154,160.2c.759-1.3-9.1,5.8-10.6,8.088s1.5,1.9,4.5,1.781c2.985-.107,3.595-5.582,6.1-9.869M325.1,145.4c-2.465,1.1-2.465,1.946,1.558,2.391s6.365-1.336,5.516-3.009c-.833-1.674-5.1-.28-7.074.618M345.54,124.2c-2.63.437-10.421,3.174-10.85,4.5-.421,1.344.066,4.246,1.261,6.538s1.633,2.63,8.327.841c6.719-1.789,11.337-5.252,9.11-5.862s-3.586-1.624-5.557-1.9c-1.987-.28,1.731-1.344,6.167-2.729s5.936-3.809-8.459-1.393m-22.714,3.512c-1.9.866-2.581.882,1.377,2.4,3.958,1.5,8.22,1.393,7.668.165-.528-1.237-3.71-5.038-9.045-2.564m15.459-11c-3.743,1.476-4.6,4.18-5.45,5.235-.833,1.072,4.254-.775,6.588-1.336,2.35-.561,2.877.833,5.161-1.171s6.777.058,10.858-.841,4.724-3.57,3.834-5.9c-.9-2.35-10.257-.231-20.991,4.015m40.647,10.1c-1.1.528-.717,2.284.247,4.361.956,2.053,1.2,1.55,3.232,2.333a15.777,15.777,0,0,1,4.551,2.9c.495.511.775.676,1.624-1.336s-.42-1.674-2.7-4.353-4.073-5.31-6.959-3.908m13.851,17.528c-3.108-.841-4.856.948-6,1.5s.6,1.847,1.385,4.238c.767,2.416.115,3.2,4.675,3.529s5.936-.5,6.291-3.405-3.471-5.079-6.348-5.862m17.685,5.252c-2.82-2.069-4.2-3.751-7.074-2.572s-.486,2.622-.486,3.405,3.479-.107,3.545,1.789,1.13,2.671-3.059,2.9-5.343.058-6.959,1.278,3.125-.165,4.559,1.731,3.9,2.119,7.907,1.517c4.023-.618,9.473-1.517,9.473-1.517a31.826,31.826,0,0,0-4.131,4.749c-1.2,1.954-1.682,4.741.412,6.134,2.1,1.41,2.342-1.435,8.162-1.558,5.813-.107,7.552-3.125,7.552-3.125a5.465,5.465,0,0,1-1.138-4.188,11.482,11.482,0,0,0-.066-3.57,24.142,24.142,0,0,1,2.877,2.342s-.42-1.731-1.253-4.856-.173-3.356-1.088-7.593c-.9-4.238-.717-5.137-5.087-5.029-4.386.124-7.379,1.632-10.982,1.632-3.586,0-5.161.66-2.506,2,2.638,1.336,3,2.96,4.254,4.46s1.014,5.137,1.08,4.972-5.994-4.906-5.994-4.906m-21.882,15.9a1.011,1.011,0,0,0-.19.082,5.207,5.207,0,0,0-2.572,4.329c-.115,1.459,2.408.61,6.423-.783s2.036-5.458-3.661-3.628m56.592-7.585a29.4,29.4,0,0,0-7.915,6.414c-1.913,2.177-.239,2.457,4.733,4.972,4.988,2.506,10.314,3.009,12.647.379,2.341-2.614-1.08-16.358-9.465-11.765m23.135-19.482c-6.381.635-4.4,1.583-11.782-.841s-16.638-2.688-19.153-2.688-1.344,1.179,1.27,5.458c2.6,4.263,3.323,5.771,8.715,4.427s9.8-2.251,13.761,3.43c3.941,5.7,6.027,7.462,2.787,9.547s-1.715,5.442.181,9.811c1.888,4.345,6.192,4.172,12.227,4.172s44.151-.577,50.087-1.674,11.238-6.109,14.387-8.368,4.856-5.78.536-8.385c-4.32-2.589-10.43-5.013-15.286-5.013s-9,2.515-16.366,3.265-5.747,4.271-12.408,4.444c-6.662.157-3.422,3.092-11.6-.256s-14.214-7.544-10.331-8.129c3.859-.585,7.008-1.08,4.848-2.927s-5.936-6.868-11.872-6.274m-76.248-31.149c3.949,1.336,4.947,2.333.536,3.5s-7.824,4.271-3.413,3.685,8.179.42,13.843,1.344,5.211.338,7.734,3.521,5.219,3.174,9.086,2.259,4.4-1.179,1.9-3.941c-2.523-2.762-5.137-7.857-8.55-9.877s-6.291-4.864-9.721-4.518c-3.413.338-4.221.412-7.189-3.6s-5.3-2.1-9.622-1.014-5.7,4.18-7.371,5.54c-3.413,2.762,8.814,1.756,12.771,3.1m51.8-41.034c-4.683,5.854-8.459,10.8-3.166,11.386,5.31.585,7.643-.42,8.006,1.261.371,1.657-.9,2.836-8.814,2.836s-5.475,1.764-1.072,6.95,4.865,3.43,11.6,3.265,8.987-2.6,14.568-1.163,7.28,2.853,2.243,4.353-16.91,4.345-14.206,6.86,11.064,8.542,14.841,9.135,4.576-2.515,12.771-1.6c8.179.923,6.2,1.764,7.1-.495s5.4-8.039,6.291-10.141c.9-2.086,3.158-3.43,7.643-4.436,4.5-1.006,5.945-2.424,1.715-3.933s-9-2.177-8.542-3.347,3.059-4.609,1.245-6.373c-1.789-1.756-4.658-1.674-7.008-2.589-2.325-.923-4.947-5.186-7.915-7.033S475.6,69.17,472,66.408s-9.35-9.506-16.547-9.127c-4.84.247-6.926,3.092-11.584,8.962m-9.193,48.982c-1.789.923-6.283,1.088-2.952,3.842,3.314,2.77,2.424,2.861,6.637,1.27,4.238-1.6,10.347-5.541,10.9-6.7.528-1.171-4.23-3.43-7.47-4.436s-5.483-3.6-12.235-5.45c-9.8-2.671,6.926,10.545,5.12,11.477M654.687,28.119C647.25,26.1,620.636,20.963,612,22.966c-8.632,2.02-8.154-4.452-20.142-2.886s-30.448.66-36.2,1.558,2.869,3.347,5.994,5.359-14.865-2.234-28.543,1.567c-13.662,3.793-22.541,5.8-7.9,11.378,14.618,5.582,16.539,7.148,16.539,7.148s-18.707-3.347-26.622-6.472-3.586-2.9-18.468,1.336c-14.849,4.238-29.244,6.48-28.519,10.941.709,4.469,11.988,10.5,19.417,12.054,7.429,1.567,22.78-2.226,23.984-2.68,1.2-.437-6,6.035-6,6.035s7.668-1.567,16.308-3.8,15.344-4.683,23.5-7.593,9.6-3.793,9.6-3.793-14.148,10.949-23.984,14.733c-9.828,3.8-22.549,6.266-28.535,6.489s-5.038,4.015.965,7.148c5.986,3.117,10.545,9.82,13.662,12.046a9.43,9.43,0,0,1,3.6,5.813s-9.358-7.371-19.664,0c-10.322,7.363-8.88,11.163-6.241,12.054s11.749,1.789,13.431,4.914,13.67-2.9,13.67-2.9S515.861,121,510.1,121s-5.516-4.906-13.909-4.015-7.915,2.91-4.312,5.8c3.595,2.91,6.48,3.8.239,6.7s-9.119,3.793-9.35,7.371c-.247,3.57,8.146,3.57,13.422,3.57s10.306-.453,19.9-.668c9.589-.231,8.393-3.356,11.988-3.356s7.2,1.121,5.755,4.691c-1.426,3.57,1.434,1.344,12-2.449,10.537-3.8,5.738-9.613,5.038-11.617-.717-2.02-4.559-2.68-6.959-3.793s7.2-10.949,5.747-14.288c-1.418-3.356,11.757-.676,17.743-8.492,6-7.808,3.842-13.62-.478-14.956-4.3-1.344,7.923-.445,11.749-2.688,3.842-2.226,12.243-4.906,15.591-9.152s4.559-5.813-3.587-4.906c-8.162.89,11.732-3.578,21.329-9.836s20.628-13.612,23.019-15.4,4.568-.9-6.711-.223-24.7-.89-17.265-1.789,29.5-3.57,35.255-7.808a68.076,68.076,0,0,1,8.385-5.582M520.412,183.08c-12-1.121-29.492-4.015-33.095,6.241-3.6,10.281-9.111,33.07-9.589,37.308s14.387,10.487,24.693,10.933,27.109,1.113,23.745-1.336-.478-3.793,9.11-3.356c9.589.453,10.553-2,10.553-4.015s1.674,2.449,8.385,6.027,12.483,13.629,18.468,19.433,19.425,13.612,16.786,18.089c-2.647,4.46,2.869,20.093-17.751,23.671-20.612,3.562-21.816,1.1-21.568,5.8.231,4.683,1.179,6.695,9.341,6.695s19.425-6.695,23.259-1.789,9.111,6.695,12.474,7.824c3.356,1.113-4.073,3.116-5.994,3.793s4.073,1.336,15.822,6.917,25.9,6.258,18.938,2.234-10.3-11.378-13.422-13.851c-3.117-2.449-.239-.437,5.277.907s10.553,5.8,12.944,7.808,3.595-.66,5.277-8.492c1.674-7.808-.717-7.808-10.075-14.057-9.341-6.25-12.227-11.163-13.183-15.632s4.8-5.367,7.2-8.492,9.119,5.59,13.67,10.718,8.385,14.074,11.988,7.593c3.586-6.472,6.942-20.991,6.942-24.339s-3.595.223-18.93-7.371c-15.352-7.585-23.267-10.487-24.7-10.487s4.073-2.9,10.792-6.258c6.695-3.347,9.589-2.894-4.807-16.523s-18.46-16.523-27.81-17.421-11.988-10.718-18.7-14.057c-6.711-3.356-22.3,4.015-26.87,5.137-4.543,1.1-3.108,2.894-8.863-5.359-5.755-8.27-10.306-14.3-10.306-14.3m10.784,0c-5.961.709,3.595,11.609,11.271,12.062s14.148-3.347,15.822-3.8c1.7-.453-17.743-9.383-27.092-8.261M504.285,293.832c-1.006,2.432-3.422,9.218-3.784,13.736s-1.08,5.186-1.97,8.039,2.877-.5,5.4,3.677c2.506,4.2,1.418,5.359,5.928.511,4.493-4.856,9.531-6.53,15.822-4.526s11.155,2.844,9-1c-2.16-3.859-5.038-3.521-9.358-8.707s-7.544-6.53-12.936-8.55-5.944-8.368-8.1-3.182m45.247,391.273c-1.863-3.875-4.65-10.149-16.316-12.318s-15.6,2.168-19.9,3.619c-4.32,1.459,4.023,2.168,9.572,0s9.77-.462,10.529.536c.742,1-1.872,1.6-2.811.544-.956-1.064-1.13,2.6,5.136,4.856,6.274,2.276,7.8,3.347,8.434,6.035s.577,4.131,2,6.373c1.435,2.243,1.97,3.191-.66,4.172-2.655,1-1.715.857.231,2.061a25.749,25.749,0,0,0,11.337,3.652c5.475.462,7.288,1.484,3.479-3.529s-10.438-14.783-11.023-16m17.413,24.528c3.042,3.108,2.16,6.5,1.946,8.286s-3.487.4-9.506-1.187-5.1-.816.132,2c5.227,2.836,8.616,2.135,8.385,5.9s4.807.346,7.033-1.839,2.07-.239,11.37,1.154c9.308,1.41,11.213,3.083,9.729-1s4.262-3.743-4-7.635-28.535-9.234-25.089-5.689m-26.474,2.325c-3.5-3.875-7.874-4.436-7.915-1.138s1.187,3.092,4.411,4c3.257.9,5.738-.4,3.5-2.861m67.541,16.795c-3.8-1.3-4.584,1.558-2.053,3.949,2.539,2.375,6.414,1.558,10.24,1.377s-1.542-3.042-8.187-5.326M564.258,261.43c-5.046,2.127-8,3.595-3.595,9.374s7.016,9.383,8.715,5.194c1.715-4.18,3.422-18.172-5.12-14.569m-40.367,61.993c-7.6,1.22-10.083,1.443-8.88,5.7,1.2,4.238,3.24,3.57,8.385,1,5.17-2.564,8.764-8.03.495-6.695m15.822,6.472c-1.294.4-1.682,3.356,0,6.027,1.674,2.688,4.906-.89,6.357-4.131,1.435-3.24-1.558-3.347-6.357-1.9M456.746,123.8c-7.189.239-17.99,2.779-12,2.894s10.916,1.344,20.637.792c9.7-.561,10.661-1.237,10.9-5.928s-6.349,1.789-19.54,2.243M411.787,84.381c-7.338,2.284-5.516,3.8,3.108,7.593s8.88,2.012,7.923-5.137-6.711-3.793-11.031-2.457m512.5,186.885c-9.086,2.539-12.128,1.022-13.851,5.631-1.732,4.592-5.285,2.127-7.338,2.7s-4.955,13.423-6.4,11.51-1.954-2.96-4.056-7.371c-2.086-4.419.693-3.636-3.3-8.294s-11.9-4.122-12.458-2.218,5.458,3.5,3.422,5.656c-2.061,2.168-6.942,4.807-8.8,6.365s3.562.882,6.959.082,5.722,2.548,7.115,4.922-1.558,4.691-3.026,5.846,4.939.874,7.5,1.352,3.908,2.63,2.16,5.532,7.618.412,12.812.107c5.178-.3,6.546,3.562,14.387,1.1,7.857-2.457,11.584-2.284,18.732-7.577s6.6-4.056,11.337-7.47c4.741-3.4,3.6-4.46,3.8-8.237s3.133,1.055,2.02-4.65c-1.1-5.714-6.967-4.164-11.056-4.6-4.1-.453-3.941-3.652-6-4.667-2.036-1.022-4.757,1.7-13.967,4.271m607.006,491.917a17.892,17.892,0,0,0-.964,5.92c0,3.018-.355,6.258-.115,9.267s.412,5.137,2.094,5.8,2.82,1.336,5.582.058,5.334-3.57,3.958-7.033a93.947,93.947,0,0,0-5.466-10.768c-1.492-2.564-4.37-5.8-5.087-3.248m-2.2-4.139c.3,1.278.709,1.014,1.319,1.9.585.89,1.253.107.412-1.055s-.734-1.319-.734-1.319-1.064-.363-1.064.7m258.952,178c-.041.14-.2.206-.3.322-4.922,4.98-9.4,3.586-17.858,6.208-8.624,2.671-23.564,11.386-24.644,15.245-1.08,3.842,0,4.345-1.08,3.842a13.164,13.164,0,0,1-2.886-2.844s-2.325,4.7-1.789,8.88,2.515,6.695,2.341,12.054-2.16,8.542-1.979,12.227,6.283,10.718,7.915,15.08c1.608,4.353,2.7,3.182,3.586,11.056.9,7.857,5.038,12.211.9,16.407-4.13,4.18-7.189,3.339-2.152,7.7s9.177,7.2,17.256,4.353c8.1-2.845,5.944-5.359,12.235-6.7,6.291-1.328,7.552-2.672,12.945-3.018,5.392-.33,9.176.173,11.163-3.669,1.97-3.859.536-3.686,5.92-6.373,5.4-2.671,4.856-3.356,8.468-4.015,3.595-.668,5.928,1.847,10.776-2.012s1.261-4.188,12.054-4.188,15.294,1.517,19.243,2.844c3.957,1.344,10.438,4.856,12.045,7.371,1.633,2.515,3.785,5.532,4.494,5.532s1.632.157,4.139-2.35,9.712-7.536,9.712-7.536-.363,5.359-1.979,7.371-1.624,4.856-1.624,5.87c0,.989,4.139-3.2,4.683-3.356.544-.173,1.08,7.371,1.616,8.03.544.676,2.168.338,3.776,2.515,1.624,2.177,3.784,3.859,5.4,8.039s8.451,8.377,12.771,9.036a35.375,35.375,0,0,0,11.328-.165c3.232-.495,3.413-4.353,6.835-2.836,3.413,1.5-.173,4.683,7.915,4.015s10.248-3.347,13.48-5.532c3.24-2.168,3.6,3.018,7.734-2.671s4.856-4.362,5.573-11.229.544-8.2,4.494-14.734,4.872-3.356,7.568-12.887c2.688-9.556,6.109-18.6,5.755-26.466-.363-7.882.165-2.68-1.632-11.568-1.789-8.871-.536-7.857-6.291-11.543s-7.189-2.688-8.632-7.874.363-6.7-2.342-6.7c-2.688,0-5.037,1.171-6.645-2.341-1.624-3.521-1.435-4.856-4.494-8.2s-5.928-2.68-11.51-5.186-2.712-3.191-2.712-7.544.313-8.987-4.131-11-1.789,1.113-1.789-6.035c0-7.132,0-6.134-3.6-7.363-3.586-1.229-4.8-1.113-7.074-5.475-2.276-4.345-5.277-11.493-6.349-14.387-1.08-2.91-2.4.33-3.842,2.449a22.439,22.439,0,0,0-3.479,11.164c0,4.345,1.921,6.818,1.921,12.615s-4.073,11.609-6.6,14.964-4.551.33-6.72-.561c-2.152-.9-2.63-4.139-7.181-6.365-4.568-2.234-12.944-4.238-16.786-7.7s-1.2-3.578,0-7.148a18.132,18.132,0,0,1,5.755-8.822c2.877-2.342,2.036-3.24-1.558-5.252s-8.632-2.119-14.75-2.119-9.712-.445-9.358,3.018c.371,3.463,3.957,4.79-1.187,3.8-5.161-1.014-9.6-1.459-11.873.989-2.275,2.473-2.77,3.925-4.081,9.168s.363,5.573-1.789,5.573c-2.169,0-10.677-4.13-13.555-5.343-2.877-1.237-4.427-1.13-7.791,2-3.355,3.116-14.989,13.282-19.3,15.731-4.328,2.465-4.089,1.9-8.459,15.64m-159.99-150.946c-2.548-.346-3.966-1.006-.849,3.009a47.405,47.405,0,0,0,6.958,7.594c2.993,2.795,4.081-2.012,6.357,3.347s1.435,5.466,3.718,7.478,4.2,2.581,4.79,4.584,1.319,5.128,3.957,7.371c2.639,2.226,2.639,1.9,4.189,6.25,1.566,4.353,3.966,7.478,5.169,11.155,1.187,3.685,8.031,7.148,11.5,11.617s9.358,10.941,10.314,9.16,3.471,0,5.277-.668c1.789-.668,2.391-3.24,3.595-9.5s-1.08-9.152-2.77-10.611c-1.666-1.443-4.79-1.773-5.615-3.117-.841-1.336-2.276-5.92-4.32-7.371s-2.531.107-2.531-3.463,2.407-3.232-.593-5.244-3.356-3.463-4.32-4.469c-.948-1-7.429-2.564-9.111-4.353-1.666-1.789-8.74-5.029-12.1-8.377s-7.074-6.027-8.154-8.476c-1.08-2.465-4.444-4.477-15.459-5.92m69.767,72.01c-2.869,0-4.3-1.674-6.225,1.789s-1.682,3.463,1.319,3.463,2.391,1.567,2.267,2.012c-.107.437-1.434-.346,4.683,2.119,6.109,2.449,10.43,1.451,12.112.552s2.275,2.234,10.668,3.57,12.829-.775,18.221.561,4.081-.668.239-3.562c-3.842-2.91-3.479-1.344-7.321-4.139-3.817-2.787-9.226-2.9-11.741-3.348s2.152,2.68-5.507,1.666c-7.684-1-4.914.676-8.88-1.888s-3.958-3.018-6.6-3.463c-2.63-.445-3.232.668-3.232.668m60.912,12.285c-2.16.668-6.6,1.9-4.559,2.787s.47,1.451,6.835.89c6.348-.561,11.872-1.336,12.705-2.68s-1.072-.437-3.727-1.229c-2.63-.775-2.391.561-5.994,1.006-3.578.445-5.26-.775-5.26-.775m22.3-.453c-4.255.519-3.727,1.451-.363,2.465,3.356,1,6.472,1.443,8.987.775s2.878-1.344,7.56-2.119,6.233-.668,9.935-1.121l3.735-.445s-.363-.775-2.886-.659-4.3.214-6.835.214-6.827,2.234-8.632,2.119c-1.79-.107-5.268-1.22-6.11-.668s-.833-1.113-5.392-.561m23.976,5.466a1.27,1.27,0,0,0-.157.116c-2.96,2.028-3.092,2.589-2.82,4.2a3.031,3.031,0,0,1-.322,2.341,12.735,12.735,0,0,0,7.692-3.562c3.323-3.347,3.463-3.306,6.868-4.518,3.422-1.22,7.289-4.939,7.289-4.939a21.6,21.6,0,0,1-5.664.338,10.667,10.667,0,0,0-6.835,2.333c-.94.8.932,1.014-6.052,3.685m-25.056,1.764c-3.125-2.234-6.151-1.921-6.381-.544s-2.7,1.294,1.7,2.935c4.411,1.624,8.591,3.768,8.278,1.542s-2.243-2.976-3.595-3.933m-28.659-93.084c-1.8,2.564,1.682,1.9-.965,4.131-2.63,2.234-4.658,1.229-7.3,4.576s-6.6,5.689-8.277,6.926-7.082,2.671-9.473,5.92a3.2,3.2,0,0,0,.841,5.021s-1.443.659-5.277-.783-4.073-3.232-4.073-3.232-2.762-.115-4.312,4.015c-1.566,4.122-2.407,4.568.338,7.033,2.77,2.449-1.9,2.564-1.311,4.238s.61,4.807,2.276,5.136c1.682.338,2.045-1.558,4.089,1.006s.355,9.82,2.993,10.166c2.638.33,4.551-.783,6.827.214,2.292,1.014,3.958,1.9,6.958.9a10.3,10.3,0,0,1,7.8.89c1.55.89,7.181,2.795,9.943,2.572s3.232.445,3.718-3.463.124-7.594,3.471-10.6,3.479-3.018,3.718-5.813.247-5.7,2.284-8.591c2.029-2.91,3.24,1.674,4.32-.561s2.16-2.226,1.55-3.347-3.719-1.121-4.914-3.24.362-3.24-1.08-7.593-2.267-2.68-.239-5.137c2.045-2.449,3.719-2.9,3.958-4.8s1.072-2.02,3.6-3.8c2.506-1.781-.4-.948-2.8-2.729-2.383-1.789-6.884-8.484-9.671-8.434-1.5.025-7.2,6.81-9,9.383m354.271,237.03c-1.154-.849-2.144-.222.5,2.894,2.63,3.133,2.869,2.234,4.543,2.342s3.125,6.266,4.073,7.833a27.156,27.156,0,0,0,2.754,3.454s.973,6.695.132,9.712-2.638,4.353-3.232,7.148,2.745,2.012,4.914,2.9c2.152.89,1.8.89.956,3.347s-3.355,3.57-3.355,4.024,4.914,3.232,7.437.223c2.506-3.018,6.456-7.486,7.56-10.718,1.063-3.24-1.93-1.789,1.55-4.131s2.993-1.237,4.8-4.139c1.781-2.9,3.7-5.911,1.674-7.478-2.045-1.566-4.312,1.9-6.126,2.573-1.789.668-3.24.783-5.746-.453s-3-1.228-3.958-3.463a12.535,12.535,0,0,0-2.16-3.463s-.725,3.792-2.515,2.581c-1.8-1.237-1.327-2.581-2.638-4.7a46.666,46.666,0,0,1-2.168-4.345c-.824-1.567-.115-4.592-4.3-5.029s-3.611-.338-4.691-1.113m.725,40.531a45.771,45.771,0,0,0-6.349,7.024,31.086,31.086,0,0,0-4.436,7.932c-.956,2.234-4.436,4.914-10.19,7.923s-7.915,4.246-9.836,7.041-8.748,11.493-9.581,12.507c-.849.989,3.224,2,7.437,2,4.188,0,10.784,3.793,14.379-.107s7.19-13.183,9.473-16.523c2.275-3.355,4.436-4.584,8.03-7.824s9.589-9.267,9.589-11.617c0-2.333-1.558-6.134-1.558-6.134a4.513,4.513,0,0,1-4.444,2.234c-3.108-.33-2.515-4.46-2.515-4.46m-28.271,42.881c-4.213-2.226-5.037,1.921-5.714,6.184s1.814.643,5.475-1.278c3.677-1.913,1.847-4.048.239-4.906m-142.569-29.269c-4.749-1.583-3.958,2.911-3.232,6.258a24.7,24.7,0,0,0,3.479,8.814c1.789,2.8,8.5,3.793,11.155,2.581,2.63-1.237,4.543-5.367,7.181-9.275s3.834-8.377,3.364-10.718c-.486-2.341-3.834,2.119-6,3.125-2.152,1.006-5.037,3.578-9.11,2.457s-5.153-2.679-6.835-3.24m-59.7-239.709c-3.834.9-5.755-2.457-8.88-8.929s-5.508-7.363-13.422-4.469c-7.915,2.91-6.712,2.234-1.443,4.246,5.285,2.012,6,2.679,6.711,2.679.726,0,8.4,1.113,6.72,2.226-1.691,1.13-8.872,2.234-4.32,5.367s2.638.89,14.635,6.926c11.988,6.019,13.909,1.567,17.751,9.374,3.826,7.808,3.826,6.472.709,8.492-3.125,2-7.2,4.015-5.508,4.238a110.684,110.684,0,0,0,12.936,1.344c8.162.445.486,5.128,9.6,5.128s11.51-2.9,15.1-7.148,4.32-2,11.988-.223,10.314,8.484,19.9,11.163,13.67,6.258,7.676.676-8.154-9.6-16.316-16.077c-8.146-6.472-8.624-7.148-11.015-12.062-2.408-4.906-10.792-10.718-20.142-14.511s-14.7-4.328-25.658-7.371c-11.279-3.125-13.192,8.039-17.025,8.929M1812.6,813.444c-3.595,2.506-4.032.973-6.72-.684-2.7-1.674-1.938,3.471-7.915.684s-8.212-4.172-14.634.569c-6.431,4.724-2.391,6.67-2.548,10s-5.375,12.8-7.321,16.275c-1.929,3.479-1.921,4.724-.445,6.959,1.492,2.21,3.595,1.385,4.485,2.5s0,9.869-1.055,12.788c-1.039,2.927,2.548,3.479,6.283,2.647s.445-1.113.445-4.172,1.789-4.452,1.789-10.158v-8.335s1.055-.561,2.4,1.385,3.29,7.379,4.922,10.158c1.649,2.779,3.281,4.864,5.829,2.91s4.914-4.164,4.914-4.164-4.914-1.525-4.914-3.2,2.086-3.059-1.352-8.624-5.219-5.837-.89-6.117,4.188-4.592,6.719-5.846a12.807,12.807,0,0,1,6.126-.824,6.668,6.668,0,0,0-6.423-1.534c-3.883,1.1-7.321,1.665-10.611,3.479-3.281,1.8-6.126,2.927-6.719-.42s-1.031-4.172-.594-8.772c.454-4.584,5.672-1.1,9.564-2.21,3.883-1.121,3.883-.841,12.392-.289s9.11-1.385,11.65-4.856a35.442,35.442,0,0,0,4.023-7.519s-5.821,4.864-9.4,7.371m20.158-12.161c.759-1.393-6.241,4.79-7.552,6.019s0,3.018.948,4.807c.965,1.789.725,7.923,1.088,9.259s3.958,2.572,3.958,2.572-.115-4.131,1.2-6.027,0-4.246,0-7.7-1.912-4.807.363-8.929m-13.785,36.648c-5.507-2.1-7.56-.717-7.56,2.16s-.61,4.312,5.252,4.312,12.491-2.589,2.308-6.472m10.957-1.863c-1.352.429-2.778,4.741-2,7.321.759,2.589,1.69.866,4.782.289s2.613-3.009,6.472-3.3,11.881,2.721,11.881,2.721,1.7-2-4.46-5.879c-6.184-3.892-8.97-3.595-16.671-1.154m-109.7-142.025s-5.507.157-6.357.157c-.833,0-2.754,2.135-4.131,2.968s-1.377,2-.412,4.18c.948,2.177,2.573,2.292,5.268,3.018s1.74-1.171,3.718-1.9,2.515-2.515,2.944-4.131c.412-1.624,1.731-2.35,2.218-2.91.47-.552-1.558-2.449-1.558-2.622a11.573,11.573,0,0,0-1.69,1.237m64.928,7.75c-2.168-1.6-3.355,4.032-3.957,6.917-.6,2.91-1.319,4.807-.239,6.926s.6,2.8.6,2.8l-3.125-2.358a19.948,19.948,0,0,0-.841,5.029c0,2.35-.965,3.356,2.647,5.029,3.586,1.674,4.8.775,5.26,3.347.487,2.564.487,3.677,2.886,4.131s5.161,1.451,6.118,3.018.47-4.139,2.152-3.8,3.611,2.457,4.8,4.361a4.14,4.14,0,0,0,2.993,2s-2.754-4.576-1.55-5.137,1.55-1-1.567-2.9c-3.116-1.888-5.631-1.451-8.022-1.789s-2.4,1.674-4.2-3.009-.363-7.593-.363-8.607c0-.99,1.319,1.566,2.762-1.674a16.983,16.983,0,0,0,1.55-8.921c-.24-3.125,2.16-4.361.354-4.469s-7.066,0-8.261-.9M1813.69,761.8c.363,2.259-2.152-.635-3.1.659s-1.435,1.047-2.968,1.682-5.2,4.056-5.2,4.056-.05-2.21.033-2.713-1.121-3.1-2.243-1.344a10.363,10.363,0,0,1-4.724,4.139c-2.523,1.261-4.089,3.1-4.4,5.359s1.525,2.185,1.525,2.185a14.423,14.423,0,0,0,2.663-3.356c1.657-2.589,1.962-2.515,4.98-2.894,3.017-.363,2.778-.33,3.734,1.3s.223,4.106.314,5.911-.091,3.966,3,5.021c3.117,1.047,1.633.082,4.46-.165s2.8-.173,2.383-1.6-1.262-2.671-1.451-4.353c-.173-1.674,1.641-2.383,2.218-2.713s.948,1.674,1.8,3.76c.857,2.1,1.212,2.012,1.575.421s1.344-5.351.99-7.371a28.123,28.123,0,0,1-.536-5.235,6.486,6.486,0,0,0-2.21-4.263c-.816-.594-3.595-3.059-3.595-3.059s.412,2.3.759,4.568m-13.794-13.67s.058-1.426-2.539-3.982c-2.613-2.556-2.671-3.3-6.653-3.982-3.958-.676-7.931.346-6.258,4.609s2.169,4.889,5.524,5.4a6.924,6.924,0,0,0,5.392-1.311s.255.676-2.919,2.671c-3.158,2-3.529,5.8-1.047,7.272s2.416,3.751,3.85,2.614c1.418-1.13,2.473-5.054,5.392-7.783s3.1-3.125,3.479-6.027a22.785,22.785,0,0,0,.058-5.219Zm6.786-8.187c-.363.288-2.432-.214-.272,1.88s4.131,2.556,3.867,4.1c-.272,1.558-.091,1.855-1.3,1.674-1.212-.165-1.575-.453-2.119-.495s-.61,1.006-.256,1.97.256-.132,1.294,1.5.767,2.185,1.08,4.065,1.13.965,1.13.965-.272-4.526-.14-5.442-.363-3.141,1.163-2.432,1.121,3.4,2.028.882a11.529,11.529,0,0,0,.05-6.744c-.445-2.012-2.028-2.094-3.867-2.094a14.361,14.361,0,0,0-2.655.173m-31.017,7.742c-.891.223-1.443,1.088-1.979,4.155-.544,3.05-2.251,4.642-4.089,6.439s-6.843,6.621-7.107,7.585c-.288.956-.322.371,3.414-1.393s6.694-4.1,7.132-6.489c.47-2.383-.437-.915,2.853-2.465s1.616-2.053,1.748-4.485-.322-3.768-1.97-3.347m198.51,91.435c-.4,3.108.9,4.032-1.979,6.307-2.886,2.292-6.118,2.292-9.185,2.8-3.051.495-.816-.511-4.609-.618-3.776-.107-4.741.165-2.993,2.061,1.731,1.9,1.311,3.743,6.884,3.521s10.191-3.232,13.794-4.345c3.6-1.13,3.3-4.032,3.6-5.367s-5.1-7.709-5.516-4.361m15.574,6.7c1.542,2.193.956,1.855,2.936,4.749s5.111,3.4,7.437,4.188.008-.841-1.723-3.183-1.871-3.636-4.444-5.977-6.9-3.628-4.205.223M1787.257,658.079c-7.684,4.889-11.147,4.526-8.088,10.726s4.971,8.822,5.392,9.993,1.979-.783,4.065-5.7c2.111-4.914,2.35-11.337,3.191-13.282s-1.921-3.413-4.559-1.74m131.587-240.872c.841,3.24,1.674,8.261-.239,8.814s-3.24,4.131-3.718,7.824c-.478,3.677-1.435,8.368.594,11.279,2.053,2.894.6,3.117.6,5.582,0,2.449.717,8.7-.478,12.384s-1.913,4.584-1.435,8.484,0,4.691,0,10.281-.355,10.042-.115,12.268c.239,2.243,1.426-1.1,2.267-1.888a4.928,4.928,0,0,1,5.87.668l1.814,1.9s2.869,1.22-1.08-7.264c-3.966-8.492-4.675-6.695-3.6-14.4s1.682-7.808,5.747-8.6c4.081-.775,6.233,4.807,6.72,5.359.486.569-.363-1.9-1.8-6.25s-2.762-5.8-3.232-11.271c-.487-5.475-2.168-10.059-4.32-11.617s-1.072-4.131-.115-6.25a17.539,17.539,0,0,0,.841-9.045,96.842,96.842,0,0,0-2.152-10.834c-.61-2.012-3.009,1.228-3.009,1.228Zm-3.6,85.523c.239,2.457.486,4.683-1.187,7.478-1.69,2.787-.486,3.463-1.443,7.363s-5.64,0-5.64.792c0,.775-.717,3.578-1.921,4.568-1.187,1.006-5.277,1.237-4.073,5.145a55,55,0,0,0,3.364,8.03,19.482,19.482,0,0,1,3.108-2.449c.725-.223,2.638-.775,2.638-.775s-.354-1.121-2.993-2.35a3.6,3.6,0,0,1-2.045-4.576c.371-.792,3.719.223,5.879,0s3.957-1.344,6.6.775a17.52,17.52,0,0,0,6.472,2.91,19.639,19.639,0,0,1,1.665-5.367c1.2-2.226,4.683-1.229,8.162-2.226,3.479-1.014,6.109-1.566,4.914-3.018s-1.08-4.691-1.805-7.148-3-.115-4.79.783-4.073.223-6.48-1.336c-2.391-1.567-6.711-7.478-8.269-9.828,0,0-2.4-1.229-2.16,1.228m-10.735,36.615c-1.138.561-2.6,3.521-2.333,6.785s3.051-.256-.544,9.795-5.4,12.309-8.9,14.915c-3.5,2.589-6.736,2.589-8.088,1.921s.371-2.935,1.352-3.611c.99-.66-3.067-.915-4.766-.66s-.09,2.185-.272,3.76c-.182,1.6-3.5,5.87-3.141,7.8s.354,2.515-1.806,3.174c-2.16.676-3.586-1.591-4.221-1.929s-3.867.594-8.1,1.171-5.293,2.012-7.1,5.12-6.035,3.595-9.086,4.766-1.888,5.532-5.219,7.033-3.323,4.271-3.595,6.53c-.256,2.267,2.061.676,2.424.511s.371-3.191,2.44-2.844c2.061.33,2.333.4,1.245,2.754s-1.7,3.521-2.77,5.532c-1.088,2,.354,2.927,1.97,4.947,1.616,2,3.15-.594,6.555-4.188,3.43-3.611,3.694-4.444,3.43-8.55-.28-4.106-1.632-4.188-4.139-5.351-2.523-1.179-3.067,0-.272-3.2,2.778-3.174,4.048-.074,5.936-1.5s6.472-1.344,10.875-2.424c4.4-1.1,8.641-2.506,8.814-1.1.173,1.435,1.533,6.2,1.707,7.206s3.075-1.426,6.018-2.515c2.977-1.088.19-1.583-.082-3.512a3.276,3.276,0,0,1,1.352-3.018s1.534,3.182,6.291.923,5.128-3.183,6.39-2.853,2.07,1.6,4.04.338c1.987-1.253,2.35-.082,1.987.923s5.755-1.921,7.1-2.844.626-.083.083-3.6c-.528-3.512-2.243-3.76-1.245-8.286a40.11,40.11,0,0,0,.989-7.791c.256-2.853,1.344-3.265,2.061-3.438.725-.157.725-3.933,2.243-5.936,1.534-2.012,1.171-2.935,1.171-7.544s-2.523-3.768-2.688-7.024a24.576,24.576,0,0,1,.618-6.456s-5.128,1.929-5.656,3.1l-.552,1.171s-.8-.833-2.515,0m-33.556,50.326a93.072,93.072,0,0,0-12.211,2.457c-3.158,1.014-3.826,2.4-3.339,5.54a65.866,65.866,0,0,0,2.16,7.94c.437,1.641,2.16,0,5.128-1.575,2.952-1.583,2.77-6.175,5.606-6.175s1.789,3.281,5.607-1.319.923-4.98,1.047-7.3-4,.437-4,.437m335.992-248c-5.68-1.1-7.33-2.342-7.849-.28-.544,2.069-1.146,2.737,2.449,4.023s5.392-.948,8.764,1.558c3.347,2.506,4.3,2.4,6.884,2.069a5.553,5.553,0,0,0,3.595-1.624s-9.522-4.906-13.843-5.747M2142,252.221c-2.086.585-3.784-1.426-3.24,3.685.536,5.1,1.707,5.689,8.261,4.766,6.571-.915,1.624-.247,10.619-.915s10.875-1.929,10.875-1.929a15.87,15.87,0,0,0-4.312-4.856c-3.059-2.342-7.107,1.6-14.033.42a75.955,75.955,0,0,0-8.171-1.171m-202.591-75.448c.09,1.954,8.987,7.445,12.219,9.045,3.248,1.591,5.755.915,12.6.165s7.379-3.677,8.179-5.351-3.24-1.1-7.816-2.012c-4.6-.932-8.36.833-9.984,0s2.424-1.674-1.624-3.182-5.029.495-5.936-.165c-.891-.684-1.072-2.111-3.051-2.267-1.979-.173-4.683,1.929-4.584,3.768m-35.255,11.469c-3.1,1.245-2.877,2.35.626,5.277s2.35,2.259.816,4.353,0-.091,5.029,2.177,7.116,6.373,10.257,7.288a7.439,7.439,0,0,0,5.31-.256,29.041,29.041,0,0,0-4.048-7.371c-2.968-4.015-9.366-5.186-10.537-8.7s-3.051-4.535-7.453-2.77m32.1-16.407s-4.576-2.762-11.51-7.124c-6.917-4.353-9.522-5.524-11.864-5.854s-1.97,2.432-2.877,4.6-1.525,1.756-5.136,0c-3.586-1.756-7.189-4.436-10.867-5.285-3.693-.833-5.928,2.185-10.157,6.373s-1.8,5.359,3.323,11.551c5.128,6.208,7.379,6.538,11.51,4.106s2.96-4.015,5.936-2.844,13.216-1.171,13.579-1.171-.635,5.689,3.867,4.188c4.485-1.5,8.624-2.259,10.7-4.526,2.053-2.259,3.5-4.015,3.5-4.015m-311.39-119.6c-1.311,1.1-8.987.437-12.953,6.687-3.949,6.258-6.7,1.9-8.748,5.7A78.825,78.825,0,0,0,1599.441,73s3.6,4.246,7.437,3.908,10.545,1.336,14.264,6.48c3.718,5.128,6.48,5.128,15.467,6.579s4.906,2.688,9.6,2.243c4.675-.462,11.139.552,9.712-1.8-1.443-2.35-2.523-3.793-1.921-8.368s4.79-4.361-.124-7.371-8.393-.552-8.154-1.113,4.436-2.243,2.762-2.35-9.952-.552-10.908-5.244,2.267-5.038,3.941-5.367c1.69-.33,1.212-.882-3.595-4.345a131.807,131.807,0,0,0-11.262-7.041c-2.993,1.567-.478,1.9-1.8,3.026m45.083,33.82c-3.479.668-6.357,4.131-8.393,7.148a54.493,54.493,0,0,1-8.632,9.6c-2.523,2-1.8,2.581,2.276,4.032s11.271-2.581,13.307-2.688,3.6,3.018,10.075,2.226c6.472-.775,16.3-2,11.51-5.466s-3.117-1.789-8.393-6.027A23.189,23.189,0,0,0,1669.7,90.3s10.908-3.685,8.278-3.908c-2.647-.231-8.039-.338-8.039-.338m-277.19-55.042c-6.274,2.251-4.073,3.347-8.154,6.6-4.065,3.24-1.328,4.122,7.437,2s9.226-3.018,14.865-5.582-4.79-6.373-14.148-3.018m13.9,15.748c-5.887,2.605-4.312,5.359-2.745,7.585s5.862-1.344,7.057,1.13c1.2,2.449,1.567,1.435,7.082-2.251s3.479-2.556,1.328-6.464-2.638-4.469-12.722,0M1373.9,45.136c-3.768,1.8-3.768,1.591-.182,3.265,3.6,1.682,12.326,3.018,16.811.082,4.5-2.927,4.147-2.342-1.525-3.174s-10.883-2.185-15.1-.173m-55.57,6.777a86.245,86.245,0,0,1,15.929-.239c4.658.5,2.952,4.518-5.681,5.442s.816,2.259,6.926,2.012,2.16-5.285,7.288-7.041,8.36-.668,14.47-2.844-3.5-4.271-10.611-4.106c-7.09.173-9.44.577-15.467.173-6.019-.42-10.883,2.284-17.083,3.347-12.771,2.177-1.608,3.768,4.229,3.257m45.849,1.6c-5.136,0-17.528,2.844-7.1,3.85s9.63,1.674,13.933.082c4.328-1.591-1.426-3.933-6.835-3.933m36.343,2.185c-7.321-2.424-7.478-1.435-13.134-1.179-5.664.239-7.907,3.768-4.221,5.268s6.192.923,9.251.429,2.877-1.426.907-2.185c-1.987-.75,11.51-.915,7.2-2.333m30.753-9.045c-5.615.693-5.944,1.674-6.48,3.5-.544,1.847.808,1.426,6.744.676s8.723-1.591,12.59-3.685-.808-7.206-.808-8.129-5.483,2.778-7.016,4.106c-1.534,1.344,1.608,2.688-5.029,3.529M990.909,367.846c-2.828,7.816-7.495,11.419-1.979,9.251s11.032-8.888,10.751-3.125-5.656,4.93-3.966,10.57c1.7,5.656.429,5.169,9.622,7.214s1.69,1.327,3.957,6.736,3.817,7.082,1.41,8.649-9.473-4.922-9.894-2.168.981,4.807,2.688,8.649-1.138,6.01-6.505,8.533c-5.384,2.531-.709,4.089,3.4,3.85s14.42-2.168,12.722,1.443-6.645-.6-10.174,5.4c-3.545,6.01-16.556,11.172-9.77,10.817s5.8-2.168,26.037-5.038c20.225-2.894,6.208-.247,19.507-4.337s9.053-5.169,1.7-3.957c-7.363,1.2,4.815-7.222,3.116-15.014-1.7-7.824-6.505-.371-9.622-5.3s-2.688-6.365,3.257-4.568,5.376-1.2-6.093-8.525c-11.452-7.33-4.378-5.887-9.613-12.021s-14.132-5.4-14.132-5.4a18.056,18.056,0,0,0,6.068-6.728c2.259-4.444,2.688-4.089,5.1-9.49s-2.407-4.93-8.476-3.611c-6.093,1.319-8.071,1.929-6.794-.478s2.119-3.364,4.947-6.373,3.389-4.559-1.839-3.356c-5.235,1.187-6.027,1.08-10.463,3.116-6.794,3.125-2.127,7.453-4.955,15.261m-14.288,18.386c-9.242,3.644-6.637,6.01-5.079,7.33s4.378-1.2-4.246,3.727c-8.641,4.93-8.773,10.331-4.246,11.411s3.958-2.638-.841,6.373c-4.823,9-8.063,15.137,1.7,12.854s12.441-7.33,17.1-7.932,5.524-4.32,5.524-9.976-3.108-5.763.569-10.454c3.669-4.675,3.949-9.613-3.265-11.889-7.214-2.292-1.41-3.727-7.214-1.443m116.161,126.1c-.5,1.262.61,4.683-3.125,7.025-3.718,2.35,1.806,4.477,2.993,6.7,1.212,2.234,2.762-7.585,2.4-12.285-.346-4.683-.709-5.474-2.267-1.443m-1.8,18.526c-6.093,2.886-6.464,5.021-7.2,9.605s4.922.891,3.471,4.906c-1.434,4.023-.107,6.142,6.241,2.358,6.349-3.809,2.762-7.264,3.719-12.07s1.8-8.591-6.233-4.8m93.991,49.345c-5.359-.519-7.734,2.844,1.434,3.859s13.307,1.171,16.729.33.536-.165-3.966-3.174c-4.493-3.026-7.371-.338-14.2-1.014m51.068,2.844c-7.387-1.591-5.384,7.379,2.16,6.043s4.675.495,8.1-5.029-2.523.66-10.257-1.014m-183.67-41.587c-6,.767-6.472,2.8-1.8,4.023s4.073-.223,6.711-2.127-2.267-2.226-4.914-1.9M689.15,432.163c-3.677,2.927-7.907,7.206-13.126,16.58s-4.667,8.377-9.712,13.563-2.515,4.023,13.134,7.041,14.379,5.359,17.982,4.353,4.32,2,4.32,5.194,3.405,1.327,5.029-3.685c1.624-5.029-1.624-14.074-4.848-19.26-3.24-5.2-3.966-5.2-9-3.859s-3.422-1.163-5.211-5.186c-1.806-4.023-4.691-.833-.363-6.868,4.312-6.035,5.392-10.71,1.789-7.874m-478.66-10.71c0,4.98,5.268,13.5,9.226,16.3,3.949,2.787,3.125,1.237,1.319-4.7-1.8-5.911-.355-5.911-1.2-9.7-.833-3.8-9.341-3.685-9.341-1.9m26.26,27.241a45.9,45.9,0,0,0,9.7,9.267c5.524,3.685,6.959,4.131,12.713,5.8s8.27-.561,4.551-3.908-.594-3.018-7.313-4.584c-6.719-1.55-8.138-1-11.51-3.125-3.347-2.111-10.43-5.8-8.138-3.455M90.561,393.149c-4.329-.981-6.027-1.171-9,1.171s-3.776,4.353-2.152,6.95.627,1.171,4.394-1.418c3.784-2.605,2-2.935,6.752-4.114,4.774-1.171,3.776-2.762,3.776-2.762s-1.163.759-3.776.173m-1.525-5.771c-2.91,1.748-3.875,3.174-.635,2.506s2.787-2.506,4.856-2.094,2.787-.412,2.787-.412-3.949-1.855-7.008,0m-83-13.324c-3.949,1.929-7.7-.33-5.26,1.13s5.755,2.844,8.36,2.556,4.32-.338,3.372-1.591-1.2-1.583-1.253-2.886c-.1-1.764-1.261-1.13-5.219.791M1333.283,919.728c-4.56,10.059-14.156,5.145-21.824,12.507s-6.48,5.145-.717,15.409-4.79,9.16-7.445,21.214c-2.63,12.054,3.125,9.828,6.241,20.1,3.133,10.256,4.56,7.148,10.314,5.8a33.69,33.69,0,0,0,9.828-4.023,144.277,144.277,0,0,1,4.79-22.1c3.842-13.167,6.48-22.772,7.2-31.479s1.435-14.964,3.364-12.285c1.913,2.68,2.152,2.68,2.152-1.566s-2.3-16.176-5.994-18.98c-6.481-4.914-3.356,5.359-7.907,15.4m6.728-686.857c-6.291,1.443-9.267,5.285-4.691,6.785s4.131.676,11.691-2.012-.816-6.192-7-4.774m117.472-114.1c-2.143-3.356-4.065,1.121-26.12,10.718-22.071,9.6-21.832,1.336-42.452,17.644s-16.061,14.28-17.265,24.116c-1.212,9.82-5.994,5.573-7.915,14.511s-12.458,9.383-7.189,16.753,12.219,11.609,23.25,14.733,14.148-.214,11.765-1.344c-2.407-1.121-10.793-14.288-9.119-29.253s7.2-12.73,12-18.312,17.256-20.093,25.419-25.015c7.923-4.774,29.013-11.444,39.641-15.1.3-.115.676-.091.874-.305,8.393-9.374-.717-5.8-2.886-9.152m-59.453,100.372c-2.605.371-3.834.445.965,5.137s8.987,8.261,7.428,2-5.994-7.478-8.393-7.14m78.763-45.437c-3.5-1.641-5.384-3.356-6.233-.676-.833,2.68,3.966,6.258,8.641,7.148s.956-4.906-2.407-6.472M651.323,454.721c-5.326-2.671-10.537-4.8-14.016-4.8s.717,3.677,6.233,6.695,10.908-.33,7.783-1.9m-12.7,22.442c.289-4.427-2.952,5.087,1.014,7.206s6,2.671,8.517.1.47-.948-3-1.558-6.769-2.061-6.53-5.747m1570.9-153.856a26.96,26.96,0,0,1-11.328-1.171s-.363,5.2-2.333,7.7a4.919,4.919,0,0,0-.552,5.194s-6.472-2.844-10.24-4.188c-3.784-1.344-7.2-.165-9.366-5.862-2.151-5.7-8.624-4.683-13.661-4.683s-3.587-6.53-3.587-6.53l-3.059.157c-3.067.173-2.523,7.544-6.472,9.885-3.974,2.342-16.374,3.859-16.374,3.859s7.915,5.689,9.539,10.38a45.419,45.419,0,0,0,4.675,9.209s-.725,2.185-10.265.33c-9.531-1.83-8.979,1.855-19.235,6.027-10.256,4.188-21.939,10.562-24.817,12.9s-3.058,1.006-12.045-1.171-10.792,2.506-13.134,3.685-1.435-5.359-1.435-5.359a17.572,17.572,0,0,0-7.2,2c-40.993,20.826-12.721,19.73-14.024,23.943l-4.32,16.259c-6.027,17.941-10.2,8.542-15.286,22.764-16.185,45.214-25.542-6.967-25.542-18.914,0-7.379-1.616-16.918,3.067-19.095,40.234-18.74,3.768-2.605,41.537-28.469,12.243-8.377,5.574-13.406,8.269-15.747s7.025-3.018,7.025-3.018l-6.662-.668c-6.654-.66-6.835.841-12.054,6.538s-9.341,6.7-8.27,2.333c1.08-4.345,1.253-8.871-2.687-6.522-3.958,2.342-5.582,2-12.953,3.521a36.2,36.2,0,0,0-21.94,13.39c-6.653,8.385-2.877,7.371-.717,9.383s-10.619,1.5-16.721,1.014c-6.126-.511-2.894-1.682.709-2.861s-5.4-2.168-13.315-3.85-4.848,1.344-9.514,3.182c-4.683,1.847-4.5-1.674-6.843-2.177s-12.763-1.171-20.134-2.012-6.843.5-8.814,3.018c-1.987,2.515-15.649,14.577-21.585,21.445s-13.307,8.368-19.969,14.733c-6.645,6.357-7.725,6.027-2.333,7.033s6.118.495,7.008,5.524c.907,5.029,3.422,6.695,9.176,6.695s4.139,1.509,5.211-2.844c1.089-4.362-1.435-9.374,3.43-5.532,4.84,3.859,8.806,6.711,10.24,12.235,1.451,5.524-.363,9.539-2.877,18.765-2.523,9.2-3.413,22.434-6.835,29.129s-6.11,11.724-9.894,19.095c-3.768,7.371-22.121,25.955-26.243,27.628-4.147,1.674-6.835,1.847-8.822-1.839-1.971-3.685-3.413-3.018-8.1,1.171-4.658,4.188-6.827,6.7-8.624,13.39-1.8,6.711-5.763,6.711-9.894,11.724s-5.211,3.859-2.16,9.556,8.088,11.724,8.632,17.24c.536,5.54-2.523,13.571-4.493,17.091s-11.328,5.186-11.155,3.512a130.663,130.663,0,0,0,0-14.9c-.363-4.856-3.958-4.856-2.7-6.365,1.278-1.5,6.489-4.015,2.7-7.544-3.776-3.512-6.472-.5-8.088-4.683s.725-7.544-.173-9.044-3.6-3.174-9.177-3.685-6.843,5.021-8.1.165.552-5.359-1.97-7.362-4.675-.676-11.139,4.856c-6.48,5.524-7.75,4.353-13.142,6.695-5.392,2.358-5.392,3.685-4.131,5.532s5.755,9.877,9.523,10.71c3.785.849,6.489-1.674,12.235-1.674,5.771,0,6.835.841,5.4,3.009-1.451,2.185-5.4,4.37-12.408,11.394-7.008,7.041-4.864,5.705-2.523,8.55s5.755,6.357,8.27,11.889c2.523,5.516,0,7.528-.354,10.7-.363,3.2-.9,8.055,3.784,13.084,4.666,5,1.427,3.339.89,5.186s-8.451,16.234-12.045,23.448c-3.611,7.189-3.611,7.866-15.286,16.069-11.691,8.212-16.91,9.044-23.209,10.207a78.039,78.039,0,0,0-14.923,4.37c-3.232,1.344-1.987,4.015-2.325,5.689-.379,1.674-3.422.165-2.894-2.35.544-2.506.19-4.353-1.426-5.021s-6.662-2.688-11.873,2.341-11.518,5.359-13.678,11.732c-2.152,6.357-1.789,4.188.552,6.868,2.325,2.671,13.662,13.563,16.358,19.416s3.248,10.224,3.43,16.589-12.961,18.089-18.707,21.939-7.025,7.528-6.118,1.5c.89-6.027-2.515-9.547-6.653-14.066s-16.72-8.212-19.07-8.715c-2.333-.495.9-4.172-.725-4.015-1.608.173-5.384-.841-4.848,5.029s-3.768,4.015-4.675,9.877-1.979,11.889,1.8,11.386,3.059,5.194,5.936,11.559,1.789,2.853,9,8.707,5.384,4.856,7.016,10.718c1.608,5.862,1.072,9.218,4.683,14.577,3.578,5.359,3.768,6.53-2.168,3.5-5.936-3-10.784-6.695-13.134-10.38s-3.76-13.068-5.211-17.743c-1.443-4.691-11.147-10.215-14.379-13.571s-1.262-6.027.354-13.736-.717-15.072-1.261-19.755c-.536-4.7-4.312-17.833-6.126-22.277-1.789-4.436-1.072-3.85-3.859,0s-4.939,6.2-7.643,6.2-6.645-.421-6.291-2.185,3.058-8.451,2.251-10.966-3.331-10.553-7.107-13.406-8.1-6.777-10.52-13.39c-2.432-6.612-3.059-4.691-7.734-1.253s-15.385,3.85-20.5,4.263-.9,2.935-2.152,5.45c-1.27,2.515-7.28,5.771-19.416,18.419s-13.975,13.068-17.125,14.412c-3.149,1.327-5.1.915-5,6.1.082,5.194.561,8.014-.041,12.648s-1.979,6.53-3.306,9.49a55.92,55.92,0,0,0-3.166,11.114c-.421,2.787-3.116,6.027-7.074,8.871s-3.949,2.341-5.755-1.839-11.147-20.266-18.7-35.337-5.755-17.759-6.481-22.112-.866-30.5-.536-32.484c.19-1.113-3.653,3.067-4.741,5.186s-1.022,4.691-5.326,5.079c-4.32.4-5.219.453-9.292-3.628s-5.945-6.357-5.236-6.241a22.647,22.647,0,0,0,8.113-1.789c2.688-1.344,1.789-2.8,1.789-2.8s-2.927.338-6.414.511-1.921-.783-6.53-2.622-5.648-2.012-6.423-4.073-1.913-4.972-2.572-6.538-1.2-1.682-1.97-3.628-2.993.338-7.981.445-3.842.33-9.828,2.68-6.9,1.509-13.67,1.294-11.51-3.133-14.931-4.3-3.949-.676-8.987-1.4-3.958-3.29-5.219-5.417-3.355-2.622-9.951-2.119c-6.579.5-6.835.173-10.545-.833s-4.024-2.342-7.14-5.475-2.094-.66-4.131-2.292a17.443,17.443,0,0,1-5.7-8.2c-1.616-4.362-1.253-5.31-3.117-7.313s-1.731-1.517-7.56-1.517c-5.812,0-3.166.388-3.891.783s-2.515,2.96-4.13,4.972,1.311,4.807,3.652,7.536.3,2.457,4.023,6.588,2.449,3.743,5.087,9.49,4.32,7.2,4.914,8.929c.61,1.731,1.146-.668,1.748-2.234s-.239-7.148-.239-7.148a35.939,35.939,0,0,1,2.152,6.489c1.022,4.122.3,4.18,1.022,6.81s0,2.276,4.493,2.276,7.247.173,12.235-1,7.124-5.689,9.457-7.033c2.35-1.344,2.35-6.035,3.9-5.524,1.55.495.074,5.524,1.5,8.814,1.443,3.3,1.8,2.119,5.285,3.57,3.463,1.459,4.427,2.3,7.964,3.628,3.537,1.344,1.138,1.517,3.059,5.029s1.8,1.558,3.661,2.8,1.138.33-.181,4.518-1.558,4.238-4.675,7.651-3.125,2.341-3.595,2.234-1.443-2.515-1.443-2.515a26.229,26.229,0,0,0-2.276,8.822c-.305,4.749,1.558,3.009-4.147,5.3-5.689,2.284-9.11,3.24-11.32,5.137s-2.21,4.411-3.479,5.639c-1.253,1.22-3,.107-6.827,1.443s-2.77,1.064-6,3.529c-3.232,2.449-.363,2.226-4.493,3.784s-11.625,5.194-15.41,5.59-2.993,1.393-3.949,2.787-1.031,2.119-5.821,2.844-10.784,1.41-13.728,2.853-7.255,4.691-10.372,4.073-2.275-.726-3.3-3.52a33.574,33.574,0,0,1-2.036-9.374c-.478-4.576-2.1-11.551-4.741-15.962s-2.581-4.7-5.45-9.333-4.8-8.533-7.313-10.322-3.768-1.9-4.98-3.232c-1.2-1.336-.486-5.92-1.732-9.828-1.261-3.908-2.1-7.7-3.966-9.885-1.855-2.168-4.732-4.683-7.313-9.308-2.564-4.642-2.745-5.153-6.456-12.293-3.735-7.14-5.054-8.039-7.5-12.837s-.849-3.859-1.74-6.7-3.24,4.634-5.1,6.085-2.811.734-4.312-3.512-2.77-7.981-3.9-6.307c-1.146,1.674-2.037,3.348-.487,7.882,1.558,4.5,2.292,3.553,4.32,7.857,2.045,4.3,7.61,15.08,9.885,19.54s1.385,2.284,3.488,9.045,3.29,7.593,6.1,10.372c2.828,2.8,2.35,1.344,3.6,5.92,1.27,4.584.783,9.943.965,12.738s1.731,4.238,5.1,7.033,1.674,1.789,3.232,4.741a66.184,66.184,0,0,1,4.024,10.05c.891,2.9,1.979,4.914,4.609,6.2a45.52,45.52,0,0,0,6,2.4c2.63.948,1.723,1.616,3.529,3.908s5.277,4.015,7.445,7.651c2.152,3.619.709,2.564.585,6.085s-1.253,1.9.305,3.735,4.254,3.356,8.805,6.357c4.559,3.026.915.907,4.98.791,4.089-.107,4.922-1.179,9.292-2.127s10.009-2.572,15.4-3.85,10.669-2.119,13.439-3.018c2.754-.89,2.82,2.135.709,6.81-2.1,4.691-3.108,8.6-4.914,12.4s-2.465,4.131-3.776,7.206-10.2,15.616-12.037,19.59a49.272,49.272,0,0,1-6.777,10.446c-2.7,3.29-11.155,9.259-15.113,12.441s-2.935,3.174-5.87,6.926c-2.943,3.735-11.864,14.123-14.28,17.8-2.4,3.685-3.76,5.029-5.565,8.657s-6.885,8.756-7.2,11.378c-.3,2.63-3.166,2.968-1.014,5.26s3.29,2.671,4.073,5.573-2.4,6.2-.354,11.5.593,1.517,3.661,5.755c3.051,4.238,2.935,6.926,3.224,13.117.305,6.192.6,12.334-.354,16.349s-2.276,6.645-3.652,10.281c-1.377,3.62-8.929,6.085-13.373,8.03-4.428,1.962-4.246,1.171-6.291,3.636s-7.907,7.585-9.885,11.378c-2,3.809-3.479,3.413-2.7,5.813s2.44,5.524,4.493,9.993c2.028,4.46.594,4.131.115,7.989-.486,3.842-.42,3.24-.956,7.923-.552,4.691-6.06,4.8-12.351,7.255s-4.015,1.228-4.741,4.634-.289,10.1-.544,14.115c-.231,4.032-2.144,2.408-5.573,7.371s-4.79,7.321-8.451,13.291-3.347,5.136-7.973,8.88c-4.609,3.735-8.27,4.683-10.306,8.979s-4.378,1.459-14.272,4.634c-9.885,3.191-2.7,1.632-12.1,2.679-9.407,1.072-12.771,1.8-17.751,2.688s-4.32-.272-7.371-3.628-3.537-3.084-4.906-5.862c-1.394-2.8-.363-3.463-.792-8.492-.412-5.021-.833-5.186-2.688-8.319-1.863-3.116-1.748-3.619-3.776-8.591a40.92,40.92,0,0,0-5.227-9.712c-2.267-3.347-2.935-2.284-5.029-4.469s-2.16-4.073-2.638-7.148-1.2-10.322-2.218-17.974-.115-3.578-1.328-6.81c-1.187-3.232-2.63-7.148-4.667-11.436a62.979,62.979,0,0,0-4.436-8.492c-3.117-5.31-2.828-4.576-4.8-9.2-1.979-4.642-2.276-2.581-2.391-4.37s1.014-5.021,1.138-8.138c.107-3.133,1.138-6.752,1.9-11.559.792-4.807-1.064-4.749.965-8.047s4.139-6.3,5.466-10.05c1.319-3.727,1.129-3.9,1.129-8.641s-.486-4.353-1.913-8.319c-1.443-3.966-1.979-8.608-3.719-14.964s-1.682-6.134-1.929-8.6a59.761,59.761,0,0,0-2.63-11.328c-1.2-3.347-1.8-2.012-4.427-4.18-2.638-2.185-.9-1.237-3.183-3.636s-1.855-3.183-4.073-5.8a32.431,32.431,0,0,1-4.328-5.7c-1.789-2.952-.825-1.171-.585-6.142s1.665-14.461,2.581-19.928c.891-5.474,1.08-5.186-1.022-7.478s-3.6-5.582-5.219-6.142-5.516.561-11.213.445-5.45-1.393-7.907-4.246c-2.465-2.836-5.705-6.8-6.843-7.865s-3.116-1.014-12.821-.28-3.842.9-10.323,1.9c-6.456,1-8.987,4.4-13.958,6.142-4.972,1.723-6.414,1.278-15.17-.454-8.74-1.731-13.117,2.02-17.562,3.916s-6.6,1-9.828-1.237-5.153-4.081-10.141-6.53c-4.963-2.457-3.834-3.793-8.739-6.2-4.93-2.4-3.306-2.515-7.379-6.365s-4.37-7.75-7.189-11.774-5.227-9.655-9-13.9-7.486-12.788-9.341-15.352c-1.872-2.572-3.29-2.8-3.24-4.023s3.661-8.426,5.161-12.161,1.913-3.249,2.564-5.582c.668-2.35-.89-9.1-2.325-12.788-1.451-3.694-3.067-11.452-4.2-15.08-1.146-3.628.586-3.685,1.979-5.738a123.6,123.6,0,0,0,8.088-12.73c3.413-6.373,5.334-9.49,7.132-12.458s5.928-12.046,8.64-14.511a86.442,86.442,0,0,1,12.516-8.88c2.935-1.5,5.334-2.333,5.821-3.677.47-1.352,1.731-12.392,2.581-17.026s-.3-7.206,3.059-8.987,8.748-5.145,11.568-6.711c2.811-1.55,3.24-3.9,4.667-7.3,1.443-3.413,2.053-7.7,4.2-9.1s1.558.618,4.378,2.515,3.3,2.012,4.617,2.35,2.515-1.072,5.813-1.121,3.661.4,5.631,1.459c1.971,1.047.9,1.055,6.538-2.407a89.581,89.581,0,0,1,17.5-8.319c7.371-2.729,12.408-4.246,15.822-4.634s1.682.049,5.524,1.567,4.015,2.177,4.79,1.055,3.3-4.246,4.914-4.131,3.479.783,7.618,1.509,5.87.338,7.552-.561,3.825-2.68,4.246-2.68a71.983,71.983,0,0,1,6.843,2.292c2.878,1.064,2.935,1.229,2.342,1.946a15.089,15.089,0,0,0-2.82,4.634c-1.385,3.133-.726,1.459.594,4.757s2.276,3.117,1.674,5.524-3.3,4.634-5.269,6.975-1.492,2.729,3.356,5.475a69.182,69.182,0,0,0,9.177,4.741c5.45,2.457,5.689,1.558,12.046,3.463s5.573,2.119,7.791,4.691,2.333,5.021,6.175,6.357,7.907,1.344,10.133,2.737,4.015,3.405,7.016,3.966,2.985.948,4.427-1.229,2.638-4.131,2.1-5.252-2.16-2.844-1.806-3.908a74.829,74.829,0,0,1,3.661-6.571c.792-1.294,2.77-1.632,7.5-1.855s8.022-.89,8.805,1.9c.775,2.8.6,1.509,4.254,3.026,3.661,1.5,4.023,1.5,7.074,2.68,3.059,1.163,1.5,2.836,3.059,2.721a18.8,18.8,0,0,1,6.95.511c2.877.833,8.154,3.347,13.728,3.57s7.734-1.451,8.575-1.847c.841-.379,4.8-5.235,7.14-1.888s5.384,3.405,11.263,3.067,5.936-1.228,7.255-2.737a40.863,40.863,0,0,0,6-11.106c1.13-3.908,4.246-12.45,5.087-16.308s-.058-6.86-.363-9.143.247-3.859,1.146-6.431c.9-2.556-2.82-1.006-4.32-.495-1.492.495-1.913-.783-3.29-1.179-1.385-.379-2.82-.726-3.842,1.847s-.544,3.85-6.06,3.578c-5.508-.289-4.485-.618-6.291-2.581-1.8-1.946-4.856-2.449-7.321-3.174-2.449-.734-2.688-.618-2.869.948s-.239,2.622-2.028,3.24c-1.806.618-5.878-.115-9.3-1.731s-4.436-2.4-7.8-5.7-2.869-3.29-4.246-8.368-1.377-9.44-.775-10.941c.585-1.509,1.55-1.954-1.022-1.171-2.589.775-4.329,1.22-2.589-2.622,1.748-3.859,3.356-4.032,5.161-4.535a49.043,49.043,0,0,1,7.973-.775c3.413-.231,6.052-1.954,7.247-2.457s3.669-1.344,2.407-1.674-5.037-.734-4.378-1.789,1.08-1.006,3.108-1.228c2.053-.231,5.219-.338,7.923-.495,2.688-.173,4.312.33,5.219-1.294s2.028-4.023,4.13-5.3,4.378-.618,9.894-.841,4.667,1.121,6.472,2.408,2.993.66,5.343,1.113c2.333.453.891,1.847,2.688,2.572s5.1,1.451,9.111,2.737c4.023,1.278,1.385.726,6.291.726s4.741.049,8.64-.618,5.516-2.119,8.27-4.081c2.762-1.946.841-6.2-.173-9.482-1.031-3.29-5.343-5.409-7.322-6.926s-6.233-6.315-8.508-8.261c-2.292-1.954-4.922-2.515-7.437-3.9-2.515-1.41-7.016-3.694-7.429-5.54s.965-1.888,4.675-2.779,2.523-1.674,3.232-3.636c.726-1.946,1.022-1.9,4.073-3.018s-3.521-3.463-4.436-4.733c-.891-1.294,2.045-.9,5.1-1.632s3.306-2.168,3.718-3.463c.421-1.278.289-1.9-3.3-1.83-3.595.049-8.154,1.558-14.206,3.174s-3.29,1.682-6.95,4.526-3.9,1.616-3.422,3.174.717,3.067,4.427,5.029c3.727,1.946,2.152,2.012,3.191,2.292,1.014.272,3.529.668,2.391,1.006-1.138.321-2.16,2.111-3.842,2.111s-2.4,1.731-5.269,3.356a15.28,15.28,0,0,1-6.233,2.177c-2.094.338-3.594-.338-3.306-3.908.313-3.578-1.072-1.163-3.3-2a8.176,8.176,0,0,1-3.059-1.8,24.672,24.672,0,0,0,4.444-2.168,8.608,8.608,0,0,0,4.32-4.963c1.072-2.737-2.407-1.237-4.922-1.566s-1.8-.561-4.254-.9a4.6,4.6,0,0,1-3.413-2.284,7.438,7.438,0,0,0,3.232.223c2.094-.223,1.632-.783,2.4-1.344.783-.552,1.393-1.055.783-1.055s-3.182.272-4.914.165a18.33,18.33,0,0,0-5.277,0c-2.523.387-1.5,1.336-3.3,2.506s-1.863,1.566-2.82,3.3-1.261,1.451-1.921,2.564-.594,3.908-.594,5.813c0,1.888-.487,2.506-1.624,4.073s-1.138.89-3.059,1.83c-1.913.956-.66,1.632-.891,3.529s-.907,2.622-1.088,5.087c-.173,2.449-1.138,2.556-2.63,4.287s-2.342,1.723-2.457,3.521a21.091,21.091,0,0,0,0,6.027c.412,3.463,1.377,2.564,4.073,6.085s4.139,2.185,3.174,3.966-.775,1.121-4.081.726-3.826.107-6.225,2.4-2.886,3.578-4.139,4.411-.841-1.674-1.311-2.853c-.486-1.163-6-1.558-9.778-2.68s-4.8-1.789-5.755-1.789-2.424-.214-6.381,1.962-3.059,3.43-2.787,6.283,3.405,3.43,2.515,10.125c-.907,6.7,3.331,3.6,5.12,7.709,1.806,4.106.19,3.76-.89,4.271s-2.16,4.015-2.968,7.371.083,3.768-.907,3.6-2.152.585-4.04-2.185-3.413-.157-3.694-1.756c-.256-1.591-2.605-4.271-1.707-7.948.9-3.694,2.341-4.032-.9-5.953s-2.416-2.177-3.957-6.118a22.257,22.257,0,0,0-4.84-8.286c-2.985-3.595-2.713-2.589-1.9-6.192s1.443-8.294-.363-10.8c-1.789-2.515-9.251-9.457-15.376-12.73-6.109-3.257-7.371-.75-10.067-5.944s-3.941-10.636-8.451-13.827c-4.485-3.174-2.242-3.43-6.563-1.83s-4.411,2.259-4.048,3.512a10.646,10.646,0,0,1,.717,6.373c-.635,3.422-1.525,2.333,2.968,5.013s2.614,2.1,4.856,7.033c2.259,4.939,2.614,5.87,4.411,7.874s2.432,3.76,6.926,4.774,3.776-.247,4.939.841c1.179,1.08-3.15,1.5-2.333,2a40.314,40.314,0,0,0,5.573,4.271c3.776,2.341,7.651,4.774,8.641,6.621s4.312,8.781-.544,3.677-4.947-2.754-6.3.758,1.253,6.2,1.088,8.789c-.182,2.6-2.432,1.6-3.966,3.685s-2.333,4.6-4.139,5.945-1.262-1.5-2.234-1.5c-1,0-1.352,1.245-2.614,3.677s0,3.438.528,6.7c.544,3.265,1.451,3.52-2.061,3.356s-2.7-3.438-5.928-5.615c-3.24-2.177-5.128-1.426-7.824-3.108-2.7-1.657,1.171-2.086,7.907-2.927s7.552-1.5,9.63-3.092c2.061-1.6,1.336-2.012,3.595-5.194,2.242-3.174,0-4.444-1.534-8.3a14.077,14.077,0,0,0-5.392-6.357,53.87,53.87,0,0,1-5.211-5.186c-1.987-2.177-4.057-2.515-7.47-3.347s-2.787-3.941-4.675-4.856-3.776-3.6-8.1-7.618-2.688-7.041-4.675-10.553c-1.97-3.521-3.949-6.2-8.278-6.2-4.3,0-7.544,3.018-11.864,7.2s-3.413,6.2-8.451,3.018-6.827-2.845-10.438.173c-3.578,3.009-4.312,6.027-4.312,12.054s-4.312,3.521-7.725,5.186-6.48,5.862-11.691,15.748.354,5.186-.725,8.542.363,6.027-4.493,10.38-2.7-.5-5.574,3.018-6.843,6.365-13.67,5.532-4.856,1.839-9.176,2.844-6.645,2.515-5.573-2.35.181-4.18-8.088-3.85-11.155,2.515-10.438,1.344,1.088-3.191,2-7.874,2.152-6.2.9-6.2-3.966.684-1.987-7.7,2.7-9.885,1.8-14.733.346-11.394-.709-14.239c-1.088-2.844,2.152-5.689.709-7.206-1.435-1.5-3.059-3.512-1.979-3.512a75.378,75.378,0,0,1,11.337,1.171c5.763,1.006,11.683-.841,15.1-.5,3.4.338,10.611,1.839,17.8,3.018s7.008-1.014,6.3-11.559c-.725-10.545.536-15.4-1.632-17.586-2.152-2.177-4.477-2-6.818-4.848s-.544-7.041-5.573-8.55-10.628-.33-7.915-1.336c2.688-1.014,3.768-1.344.9-3.52-2.894-2.168-3.611-4.51-1.443-4.856,2.152-.338,8.269-.338,8.269-.338s.544,3.026,3.785,1.682,7.371-2.68,6.472-4.856-2.515-4.856-1.987-4.856c.544,0,1.806,3.009,8.632,3.009s6.291-1,5.763-3.85c-.544-2.845,4.5-2.68,7.915-5.029,3.405-2.333-1.27-5.013-.536-7.189.709-2.185,4.666-3.529,11.683-4.015,7.016-.511,5.747-1.69,5.038-2.515-.718-.841.181-4.37.709-8.88.552-4.535-.528-6.035,3.067-8.2s2.515-1.344,9.894-2.02,2.869-2.342,4.122-2.671c1.278-.338,10.075-2.515,11.7-3.2,1.616-.66,1.443-.486,0-3.677-1.451-3.174-3.422-5.013-5.029-19.754-1.624-14.733-1.27-14.733,7.725-17.413s7.016-1.847,6.291,6.365c-.709,8.2-4.675,8.2-5.573,14.231s-.173,9.7,3.595,16.077c3.784,6.365,3.422,3.182,11.51,3.182s6.3,2,11.691,3.85,3.595-3.347,8.822-5.194c5.211-1.839,4.123,1.171,16.358-.668,4.666-.7,6.249-.866,6.612-.9-.371.025-1.715.041-.322-.775,2.877-1.682,3.594-4.691,7.742-5.194s7.008,1.179,6.818-5.194c-.173-6.357-2.506-5.351-1.789-10.215s.891-2.671,1.253-6.53-.528-4.526,4.683-5.862,1.624,4.691,7.907,6.027,5.4,2.35,6.48-2.506,4.5-11.229,1.435-10.891c-3.051.346-3.776-.165-6.835-4.683s-4.84-5.532-2.869-5.532,8.624-1.839,18.155-1.509,12.235,1.171,12.771.165-1.616-2,1.616-4.015c3.24-2,13.851,1.006,12.235-.833s-10.966-4.361-17.265-3.347c-6.291,1-21.585,2.844-23.918,2.671-2.333-.157-6.653-1.839-7.734-3-1.08-1.179-4.5-2.02-4.5-7.544s1.987-7.7-1.253-13.06,5.928-9.886,12.227-15.574,4.683-10.388,8.443-10.726c3.793-.33,5.236-2.333,3.422-4.188-1.789-1.83-8.451-8.2-11.691-8.871s-8.088-4.353-13.126,4.362c-5.021,8.7.354,9.539,1.27,14.066.9,4.518-7.025,7.874-12.961,12.054s-8.08,3.182-9.886,13.9-3.6,11.056,3.059,14.733c6.645,3.694,7.907,5.524,4.856,8.707s-9.531,3.018-13.5,10.562c-3.949,7.528-2.325,11.213-3.949,14.56s-6.645,4.856-8.1,8.212c-1.426,3.347-1.426,9.7-7.552,8.715-6.109-1.014-2.7-9.226-5.4-13.414-2.7-4.172-4.848-7.7-8.088-12.887s-.709-10.215-3.776-12.9c-3.051-2.671-3.776-8.03-3.776-8.03l-1.08,2.515c-1.072,2.515-.536,4.015-6.645,11.559-6.126,7.536-15.294,8.03-19.787,6.192s-3.776-6.192-3.776-11.724-1.08-12.9-.181-21.6c.9-8.715,3.422-8.039,12.961-13.736,9.523-5.689,9.7-5.359,12.037-9.045s9.177-8.88,13.126-12.227,10.8-16.077,14.387-25.122c3.611-9.036,10.248-14.569,16.72-24.281,6.489-9.7,17.99-18.254,32.732-24.446s12.243-6.868,15.64-11.732c3.422-4.856,4.873-2,10.619-3.174,5.763-1.171,4.856,0-.9,5.689s-8.261,11.724-3.422,7.206c4.865-4.526,8.632-9.886,16.184-9.548s4.5,0,11.881,3.356c7.371,3.339,8.632,3.677,4.5,6.357-4.155,2.68-11.163,2.012-11.163,2.012a11.609,11.609,0,0,0,9.176,6.365c6.835.841,10.6-5.359,15.1-3.018s5.755,4.015-.363,3.521-7.907,3.339-.355,6.019,8.27,3.018,18.155,4.361,14.222,8.533,21.758,11.724c7.569,3.183,16.366.495,13.859,7.379-2.514,6.86,1.971,13.554-11.155,16.745-13.118,3.174-12.771-1.014-23.729-4.37a192.651,192.651,0,0,1-18.7-6.695,71,71,0,0,0,7.907,8.55c5.029,4.675,5.574,9.036,5.029,17.578s-2.878,10.891,5.763,15.072,7.371,3.009,10.059,2.35c2.7-.676,7.2-1.509,6.118-2.853s-1.979-3.842-4.856-5.186-3.05-4.526-.173-6.035,5.565,1.336,11.864,1.006,0-2.341,3.051-5.524c3.067-3.183,3.249-8.533,10.62-11.394s15.278,1.344,17.264-1.839,4.139-6.86,0-11.724-7.371-6.522-4.856-8.88c2.515-2.342,7.552-8.542,9.894-5.021s8.27,7.379.726,6.695c-7.56-.66-2.35,11.229,4.485,10.562s6.3-2.853,11.881-5.532c5.565-2.688,16.539-11.559,24.264-14.239s9.358-2,12.408-.66,3.059,3.85,11.518,2.168,10.966-3.677,18.881-5.021-.536,2.853,3.051,4.015c3.611,1.179,3.966,2.177,6.67.346,2.7-1.855,11.328-4.864,7.371-7.874-3.966-3.026-6.843-5.029-6.843-5.029a10.77,10.77,0,0,1,10.438-5.862c7.544.5,19.054,7.536,26.433,12.565s16.366,15.731,16.366,15.731,3.232-5.516.536-14.733c-2.7-9.2-9.531-7.033-9.531-15.731,0-8.715-6.3-6.373-4.131-12.565,2.152-6.192,8.27-8.55,9.894-16.424,1.608-7.857,3.051-14.387,8.624-14.387s17.627,1.665,17.627,1.665,0,7.206-4.5,17.924,2.342,11.889,1.27,24.957-1.27,14.733,1.789,17.743,8.822,6.711,6.662,12.392c-2.16,5.7-3.24,9.218-11.328,12.4s-18.345,1.344-14.585,3.859a36,36,0,0,0,14.033,5.516c5.4.841,2.7-.33,7.016-3.85s14.032-10.553,13.67-13.909c-.354-3.339-5.573-8.542-1.979-11.048s5.029-6.357,10.611-3.182,10.974,15.08,10.974,14.569c0-.495-1.08-11.724-7.734-18.411-6.653-6.7-17.619-.346-17.619-6.2s3.051-13.909,2.333-20.266c-.734-6.357-3.232-12.73.9-18.254s4.32-9.877,4.32-9.877a23.675,23.675,0,0,1,.354,11.716c-1.435,6.53.725,10.388,3.776,10.388s16.72.173,9.358-2.012-9.531-4.188-2.16-8.2,7.008-1.344,17.792,1.171c10.8,2.515,13.307,4.353,16.91,4.188s3.058-.5,1.8-3.685a14.323,14.323,0,0,0-6.291-7.544c-3.421-2.168-5.747.511-6.835-2.844-1.072-3.347-3.05-11.724-3.957-14.9-.9-3.191,2.7-.676,8.451-.676s21.4-.841,33.457-1.171.181-12.895-.726-21.774,22.3-9.209,33.622-10.875c11.337-1.682,24.462-1.171,45.684-6.2s7.561-4.188,10.611-10.215c3.067-6.035,8.278-7.033,14.568-7.033s12.054,1.163,9.721,2-9.358,4.345,1.608,6.7c10.974,2.342,8.1,2.168,2.342,4.188-5.747,2-.891,5.689,10.248,5.689s4.493-1.006,2.7-4.691,1.625-2.342,10.8-.833c9.16,1.5,12.763,3.018,17.8,7.7s5.928,3.521,7.725,10.05c1.814,6.538-.173,5.524-7.906,11.551s-12.4,6.035-23.556,13.076c-11.155,7.025-8.459,10.71-14.568,15.4s-4.494,3.347,8.443,0c12.953-3.356,19.969-5.532,26.631-4.856,6.645.66,9.886,3.174,14.923,3.174s-.363.841,15.467.841,13.472,0,7.725,4.518,1.088,5.87,8.1,5.87c7.025,0,15.649.33,22.112-.676,6.489-1,.907-5.854,8.641-6.192s10.248-1.006,18.518-1.006,5.755,3.347,8.632,6.365,6.835,5.021,4.139,11.048-4.139,6.192-2.523,14.4,5.763,9.374,10.8,10.883,5.029-7.363,9.885-10.38,5.944,6.027,11.518,4.691a33.082,33.082,0,0,1,16.72.825,27.178,27.178,0,0,0,15.83.849c6.827-1.509,4.667-4.18,2.333-8.377s-2.523-3.859,1.8-8.2,7.2-2.185,21.222,1.5,9.531,3.685,17.438,5.87c7.923,2.168,5.4,1.674,17.454,7.2s9.712,12.062,15.278,15.566c5.574,3.529,5.936,0,17.092-.989,11.147-1.014,10.965,1.336,23.2,4.518,12.219,3.183,8.979,7.2,8.979,10.718s-3.405,6.2,4.147,7.874,10.611,3.174,17.083,1.509c6.472-1.682.717,1.665,15.113,1.83,14.379.173,9.531-1.665,13.851,1.344,4.3,3.026,5.392,9.045,12.4,8.385,7.008-.684,6.472-.511,3.595-6.711s-4.675-7.206-.536-7.033,12.59,2.012,28.23,4.526,16.185,5.359,28.964,13.4c12.763,8.039,16.349,8.706,25.707,15.9,3.57,2.746,4.271,3.537,4.353,3.743.239,0,1.237.289,4.831,1.954,10.059,4.683,8.27,3.182,16.9,7.363a98.875,98.875,0,0,1,15.987,10.05s.552.841-5.92,1.509M1370.45,493.521s-.956,1.286,4.081-2.746c5.038-4.007-2.35-.165-5.227-1s-3.776-2.185-2.869-5.862c.907-3.694-.363-3.694-3.422-8.542,0,0-1.624-1-5.029,1-3.413,2.02-5.392-2-9.531-.495s-8.632.841-11.155,7.033c-2.506,6.2-5.392,2.177-6.291,7.2s-8.641,7.7-8.641,7.7,3.067,3.018,5.4,5.862.717,1.014,3.051,10.4,3.974,8.533,7.206,9.869a70.882,70.882,0,0,1,8.27,4.535s-3.051-1.855-3.051,3.174-4.864,8.542-4.328,15.912-6.645,14.23-.891,14.907,3.949,3.182,10.248,4.856,9.877,2.844,19.07,2.844c9.16,0,4.122-3.521,2.869-8.715a70.469,70.469,0,0,1-2.333-14.231c-.363-5.689-2.523-4.188-3.966-7.7s.725-5.532,5.029-5.532c4.32,0,4.873-.165,2.523-4.015s-.882-5.359-3.784-7.041c-2.861-1.674-4.131,5.541-4.131,5.541s-1.789-1.682-1.072-8.715,1.253-3.685-.891-5.029c-2.168-1.336-3.438.33-6.307-4.345-2.878-4.7-.355-3.685-3.768-9.383s-1.632-2.688,2.152-2.688c3.768,0,1.789-.833,0-2.671s-3.059-4.691,1.789-4.353c4.865.33,11.155,1.336,13.489,1.509,2.341.157,1.509.726,1.509.726M699.513,235.484c-1.665,2.861,2.812,6.53,6.052,5.392s4.3.124,6.142-1.352,2.02-3.636-.173-5.755-1.3-3.372-1.666-3.6c-4.139-2.531-8.69,2.457-10.355,5.318m889.028-184.65c-4.864.165-10.265.338-5.763,1.839s2.7,9.045,11.328,4.856,6.835-4.526,12.771-7.033,2.5-1.311-4.666-3.182c-4.5-1.171-8.822,3.356-13.67,3.521" transform="translate(0 0.001)" fill="none"/>
    </clipPath>
    <radialGradient id="radial-gradient" cx="0.347" cy="1.941" r="2.345" gradientTransform="matrix(0.548, 0, 0, -1, 0, 1.999)" gradientUnits="objectBoundingBox">
      <stop offset="0" stop-color="#42a2da"/>
      <stop offset="0.116" stop-color="#42a2da"/>
      <stop offset="0.341" stop-color="#2d6e95"/>
      <stop offset="0.571" stop-color="#193f55"/>
      <stop offset="0.765" stop-color="#0b1d27"/>
      <stop offset="0.914" stop-color="#03070a"/>
      <stop offset="1"/>
    </radialGradient>
  </defs>
  <g id="Group_80" data-name="Group 80" opacity="0.05" style="isolation: isolate">
    <g id="Group_79" data-name="Group 79" clip-path="url(#clip-path)">
      <g id="Group_78" data-name="Group 78">
        <g id="Group_77" data-name="Group 77" clip-path="url(#clip-path)">
          <g id="Group_76" data-name="Group 76" style="mix-blend-mode: screen;isolation: isolate">
            <g id="Group_75" data-name="Group 75">
              <g id="Group_74" data-name="Group 74" clip-path="url(#clip-path)">
                <g id="Group_73" data-name="Group 73" transform="translate(0 -0.005)">
                  <g id="Group_72" data-name="Group 72" clip-path="url(#clip-path-4)">
                    <rect id="Rectangle_46" data-name="Rectangle 46" width="2222.45" height="1217.855" transform="translate(-1.665 -0.745)" fill="url(#radial-gradient)"/>
                  </g>
                </g>
              </g>
            </g>
          </g>
        </g>
      </g>
    </g>
  </g>
</svg>
