<svg xmlns="http://www.w3.org/2000/svg" width="651.934" height="653.095" viewBox="0 0 651.934 653.095">
  <g id="Cronifi-logo-01" opacity="0.05">
    <g id="Group_7" data-name="Group 7" transform="translate(0)">
      <g id="Group_1" data-name="Group 1">
        <path id="Path_1" data-name="Path 1" d="M333.863,653.095A338.276,338.276,0,0,1,204.23,627.558,333.241,333.241,0,0,1,98.144,557.808,325.133,325.133,0,0,1,26.4,454a320.9,320.9,0,0,1,0-254.914,325.132,325.132,0,0,1,71.747-103.8A333.152,333.152,0,0,1,204.23,25.537,338.277,338.277,0,0,1,333.863,0a40.088,40.088,0,1,1,0,80.175c-67.955,0-131.785,25.756-179.741,72.518-47.68,46.494-73.939,108.237-73.939,173.854s26.26,127.36,73.939,173.854c47.956,46.762,111.786,72.518,179.741,72.518a40.088,40.088,0,1,1,0,80.175Z" transform="translate(0 0)" fill="#303c57"/>
      </g>
      <g id="Group_2" data-name="Group 2" transform="translate(523.323 138.224)">
        <circle id="Ellipse_2" data-name="Ellipse 2" cx="45.666" cy="45.666" r="45.666" fill="#303c57"/>
      </g>
      <g id="Group_3" data-name="Group 3" transform="translate(419.796 31.586)">
        <circle id="Ellipse_3" data-name="Ellipse 3" cx="45.666" cy="45.666" r="45.666" fill="#303c57"/>
      </g>
      <g id="Group_4" data-name="Group 4" transform="translate(560.602 280.881)">
        <circle id="Ellipse_4" data-name="Ellipse 4" cx="45.666" cy="45.666" r="45.666" fill="#303c57"/>
      </g>
      <g id="Group_5" data-name="Group 5" transform="translate(523.323 423.539)">
        <circle id="Ellipse_5" data-name="Ellipse 5" cx="45.666" cy="45.666" r="45.666" fill="#303c57"/>
      </g>
      <g id="Group_6" data-name="Group 6" transform="translate(419.796 530.607)">
        <circle id="Ellipse_6" data-name="Ellipse 6" cx="45.666" cy="45.666" r="45.666" fill="#303c57"/>
      </g>
    </g>
    <path id="Path_2" data-name="Path 2" d="M257.38,329.545c6.634,6.634,113.483,110.828,113.483,110.828l167.9-157.663L371.521,379.7Z" transform="translate(-48.392 -53.154)" fill="#303c57"/>
  </g>
</svg>
